<svg id="Layer_1" data-name="Layer 1" xmlns="http://www.w3.org/2000/svg" viewBox="0 0 750 420"><defs><style>.cls-1{fill:#eff9f8;}.cls-2{fill:#455a64;}.cls-3{fill:#848484;}.cls-4{fill:#33475b;}.cls-5{opacity:0.3;}.cls-6{fill:#cbd6e2;}.cls-7{fill:#fafafa;}.cls-8{fill:#263238;}.cls-9{fill:#00bda5;}.cls-10{fill:#ffbe9d;}.cls-11{fill:#eb996e;}.cls-12{fill:#fff;}.cls-13{fill:#e0e0e0;}.cls-14{fill:#253342;}.cls-15{fill:#ff725e;}.cls-16{fill:none;}.cls-17{fill:#ffbea9;}.cls-18{fill:#e4977c;}.cls-19{fill:#af8b82;}.cls-20{fill:#7f6360;}.cls-21{fill:#e1e1e1;}</style></defs><title>Artboard 1</title><rect class="cls-1" x="-0.3" y="-0.01" width="750.6" height="420.03"/><g id="freepik--background-complete--inject-40"><path class="cls-2" d="M481.89,152.57a2.86,2.86,0,0,1,.36-.41l1.05-1c.89-.88,2.14-2.08,3.49-3.4h0v.17c-1.39-1.29-2.64-2.47-3.54-3.33l-1-1.06a2.34,2.34,0,0,1-.37-.4,2,2,0,0,1,.43.33l1.11,1c.92.83,2.19,2,3.59,3.28l.09.09-.09.09h0c-1.39,1.32-2.65,2.51-3.57,3.36l-1.13,1A2.36,2.36,0,0,1,481.89,152.57Z"/><path class="cls-2" d="M471.13,143.08a2,2,0,0,1-.36.41l-1,1.06c-.89.88-2.14,2.08-3.49,3.4h0v-.18c1.4,1.3,2.65,2.48,3.54,3.34l1.06,1a3.42,3.42,0,0,1,.36.4,2,2,0,0,1-.43-.33l-1.1-1c-.93-.83-2.2-2-3.59-3.29l-.1-.09.09-.09h0c1.38-1.31,2.64-2.5,3.56-3.35l1.1-1A2.48,2.48,0,0,1,471.13,143.08Z"/><path class="cls-2" d="M473.92,154.81c-.07,0,1.06-3.2,2.51-7.09s2.69-7,2.76-7-1.07,3.19-2.53,7.08S474,154.83,473.92,154.81Z"/><path class="cls-2" d="M494.12,161.6v-7.84c0-5,0-12.09-.06-20.67l.1.1h-35l.12-.12v28.51l-.11-.11,25.2.06h0l-25.34.05h0V132.84h35.2v.1c0,8.61,0,15.74-.05,20.74v7.26C494.15,161.29,494.12,161.6,494.12,161.6Z"/><path class="cls-2" d="M494.39,137.32c0,.07-7.9.12-17.64.12s-17.64-.05-17.64-.12,7.9-.13,17.64-.13S494.39,137.25,494.39,137.32Z"/><path class="cls-2" d="M462,135.24a.47.47,0,1,1-.94,0h0a.47.47,0,1,1,.94,0Z"/><path class="cls-2" d="M463.7,135.24a.47.47,0,0,1-.94,0h0a.47.47,0,0,1,.94,0Z"/><path class="cls-2" d="M465.41,135.24a.47.47,0,1,1-.47-.47.47.47,0,0,1,.47.47Z"/><path class="cls-2" d="M566.15,205.51v-7.63c0-4.88,0-11.87-.07-20.41l.14.14H522.79l.17-.17v28l-.15-.16,31.23.07h.19l-31.33.08h-.16V177.21h43.73v.13c0,8.57,0,15.59-.07,20.49v7.07A1.17,1.17,0,0,1,566.15,205.51Z"/><path class="cls-2" d="M566.15,181.62c0,.09-9.73.18-21.72.18s-21.72-.09-21.72-.18,9.72-.17,21.72-.17S566.15,181.53,566.15,181.62Z"/><path class="cls-2" d="M525.94,179.56a.54.54,0,1,1-.61-.46h.08A.5.5,0,0,1,525.94,179.56Z"/><path class="cls-2" d="M527.86,179.56a.53.53,0,1,1-.6-.46h.07a.49.49,0,0,1,.53.45Z"/><path class="cls-2" d="M529.77,179.56a.53.53,0,1,1-.6-.46h.07a.49.49,0,0,1,.53.45Z"/><path class="cls-3" d="M226.11,246.94V238c0-5.7,0-13.91-.05-24l.1.09H169.28l.12-.12V246.9l-.11-.11,40.91.05h.08l-41,.14h-.11V213.89h57.08v32.44A2.57,2.57,0,0,1,226.11,246.94Z"/><path class="cls-3" d="M226.13,218c0,.07-12.72.12-28.41.12s-28.42,0-28.42-.12,12.73-.11,28.42-.11S226.13,218,226.13,218Z"/><rect class="cls-4" x="174.16" y="223.44" width="17.57" height="17.57"/><path class="cls-3" d="M222,226.34h-.27A.61.61,0,0,1,222,226.34Z"/><path class="cls-3" d="M222.57,230.26a.57.57,0,0,1-.26,0h-.05A.81.81,0,0,1,222.57,230.26Z"/><path class="cls-3" d="M222.57,234.19h0Z"/><path class="cls-3" d="M222.57,238.11h-.28A1.31,1.31,0,0,1,222.57,238.11Z"/><path class="cls-2" d="M283.16,171v-8.72c0-5.56,0-13.54-.06-23.21l.12.12h-44.8l.15-.15v32l-.14-.14,32.29.07h.11l-32.39.06h-.14V138.8h45.08v.13c0,9.71,0,17.7-.06,23.27v8.08A5,5,0,0,0,283.16,171Z"/><path class="cls-2" d="M283.51,143.78c0,.08-10.11.14-22.58.14s-22.59-.06-22.59-.14,10.11-.15,22.59-.15S283.51,143.7,283.51,143.78Z"/><path class="cls-2" d="M242,141.45a.58.58,0,0,1-.53.63.6.6,0,0,1-.63-.53.59.59,0,0,1,.53-.63h0A.59.59,0,0,1,242,141.45Z"/><path class="cls-2" d="M244.22,141.45a.58.58,0,1,1-.66-.53h0A.59.59,0,0,1,244.22,141.45Z"/><path class="cls-2" d="M246.42,141.45a.58.58,0,0,1-.53.63.6.6,0,0,1-.63-.53.59.59,0,0,1,.53-.63h.05A.59.59,0,0,1,246.42,141.45Z"/><path class="cls-3" d="M559.55,316V305.51c0-6.71,0-16.41-.06-28.42l.1.11H463.92l.15-.15V316l-.14-.14,68.6.07h.1l-68.7.07h-.15V276.87h95.94V277c0,12,0,21.76-.06,28.51v9.7A1.92,1.92,0,0,1,559.55,316Z"/><path class="cls-3" d="M559.55,316V305.51c0-6.71,0-16.41-.06-28.42l.1.11H463.92l.15-.15V316l-.14-.14,68.6.07h.1l-68.7.07h-.15V276.87h95.94V277c0,12,0,21.76-.06,28.51v9.7A1.92,1.92,0,0,1,559.55,316Z"/><path class="cls-3" d="M464,282.33c0-.08,21.38-.15,47.76-.15s47.77.07,47.77.15-21.39.15-47.77.15S464,282.41,464,282.33Z"/><g class="cls-5"><path class="cls-3" d="M468,280a.7.7,0,1,1-1.4,0,.71.71,0,0,1,.7-.71h0a.69.69,0,0,1,.69.69h0Z"/></g><g class="cls-5"><path class="cls-3" d="M470.35,280a.7.7,0,1,1-.71-.69h0a.69.69,0,0,1,.69.69h0Z"/></g><g class="cls-5"><path class="cls-3" d="M472.69,280a.69.69,0,0,1-.67.71h0a.7.7,0,0,1,0-1.4h0a.69.69,0,0,1,.69.69Z"/></g><rect class="cls-6" x="472" y="288.65" width="23.11" height="23.11"/><path class="cls-3" d="M552.93,294.84c0,.09-11.9.15-26.56.15s-26.56-.06-26.56-.15,11.89-.15,26.56-.15S552.93,294.76,552.93,294.84Z"/><path class="cls-3" d="M552.93,299.55c0,.08-11.9.15-26.56.15s-26.56-.07-26.56-.15,11.89-.16,26.56-.16S552.93,299.46,552.93,299.55Z"/><path class="cls-3" d="M534,304.26h-5l-12.09.05-12.09-.05h-5a1,1,0,0,1,.35,0h1l3.67-.05H529l3.66.05H534Z"/><path d="M532.23,193.32a4.08,4.08,0,0,1,4.3-4.16,3.65,3.65,0,0,1,3.35,2l-1.47.73a2.18,2.18,0,0,0-1.88-1.17,2.64,2.64,0,0,0,0,5.28,2.16,2.16,0,0,0,1.88-1.17l1.47.71a3.66,3.66,0,0,1-3.35,2A4.09,4.09,0,0,1,532.23,193.32Z"/><path d="M540.35,196.21l.94-1.34a3.55,3.55,0,0,0,2.56,1.09c1,0,1.4-.42,1.4-.89,0-1.4-4.63-.42-4.63-3.45,0-1.34,1.16-2.45,3-2.45a4.47,4.47,0,0,1,3.14,1.12l-.95,1.28a3.47,3.47,0,0,0-2.34-.88c-.73,0-1.14.31-1.14.8,0,1.26,4.62.41,4.62,3.41,0,1.47-1.06,2.58-3.22,2.58A4.65,4.65,0,0,1,540.35,196.21Z"/><path d="M547.59,196.21l.95-1.34A3.53,3.53,0,0,0,551.1,196c.95,0,1.4-.42,1.4-.89,0-1.4-4.64-.42-4.64-3.45,0-1.34,1.16-2.45,3-2.45a4.45,4.45,0,0,1,3.14,1.12l-.95,1.28a3.47,3.47,0,0,0-2.34-.88c-.73,0-1.14.31-1.14.8,0,1.26,4.63.41,4.63,3.41,0,1.47-1.07,2.58-3.23,2.58A4.68,4.68,0,0,1,547.59,196.21Z"/></g><g id="freepik--speech-bubble--inject-40"><path class="cls-7" d="M218.31,194.33l-3.89-6.91a18.48,18.48,0,1,0-4.43,4.94h0Z"/><path class="cls-8" d="M218.31,194.33l-8.37-1.89a.09.09,0,0,1-.06-.1h0l.11.1a18.43,18.43,0,0,1-8.87,3.75,17.69,17.69,0,0,1-2.91.15,10.2,10.2,0,0,1-1.54-.08l-1.56-.24a18.63,18.63,0,0,1-11.57-7.42,18.17,18.17,0,0,1-3.13-7.16,18.87,18.87,0,0,1,.21-8.26,19,19,0,0,1,11.14-12.69A18.86,18.86,0,0,1,200,159.2a18.07,18.07,0,0,1,7.62,2.26,18.72,18.72,0,0,1,8.78,10.81,19.66,19.66,0,0,1,.81,6,18.49,18.49,0,0,1-2.77,9.17v-.07c2.43,4.39,3.6,6.5,3.85,6.94l-4-6.87a.09.09,0,0,1,0-.07,18.45,18.45,0,0,0,2.69-9.11,20.24,20.24,0,0,0-.82-5.94,18.57,18.57,0,0,0-8.7-10.65,18.14,18.14,0,0,0-7.5-2.2,18.72,18.72,0,0,0-8.14,1.26,18.28,18.28,0,0,0-7,5,18,18,0,0,0-3.91,7.48,18.7,18.7,0,0,0-.25,8.12,18,18,0,0,0,3.07,7,18.42,18.42,0,0,0,11.38,7.35l1.55.24,1.51.09a16.65,16.65,0,0,0,2.91-.14,18.35,18.35,0,0,0,8.81-3.65.08.08,0,0,1,.11,0h0a.08.08,0,0,1,0,.09h0v-.12Z"/><polygon class="cls-9" points="191.15 178.41 193.27 176.3 197.36 179.93 205.37 172.21 207.34 174.33 197.05 184.01 191.15 178.41"/></g><g id="freepik--Code--inject-40"><path class="cls-8" d="M444.47,300.28a4,4,0,0,1,1.45-.15l-.15.15h0v-.55a1.77,1.77,0,0,1,0-.46c0-.27.06-.43.1-.43s.08.16.11.43a2.31,2.31,0,0,1,0,.46,1.22,1.22,0,0,1,0,.27v.28h0l-.15.16A3.68,3.68,0,0,1,444.47,300.28Z"/><path class="cls-8" d="M438.75,300.28a6.89,6.89,0,0,1,2.86,0A6.57,6.57,0,0,1,438.75,300.28Z"/><path class="cls-8" d="M433,300.28a6.89,6.89,0,0,1,2.86,0A6.57,6.57,0,0,1,433,300.28Z"/><path class="cls-8" d="M427.31,300.28a6.89,6.89,0,0,1,2.86,0A6.57,6.57,0,0,1,427.31,300.28Z"/><path class="cls-8" d="M421.59,300.28a6.89,6.89,0,0,1,2.86,0A6.57,6.57,0,0,1,421.59,300.28Z"/><path class="cls-8" d="M415.88,300.28a6.89,6.89,0,0,1,2.86,0A6.57,6.57,0,0,1,415.88,300.28Z"/><path class="cls-8" d="M410.16,300.28a6.89,6.89,0,0,1,2.86,0A6.57,6.57,0,0,1,410.16,300.28Z"/><path class="cls-8" d="M404.44,300.28a6.89,6.89,0,0,1,2.86,0A6.57,6.57,0,0,1,404.44,300.28Z"/><path class="cls-8" d="M398.72,300.28a6.89,6.89,0,0,1,2.86,0A6.57,6.57,0,0,1,398.72,300.28Z"/><path class="cls-8" d="M393,300.28a6.89,6.89,0,0,1,2.86,0A6.57,6.57,0,0,1,393,300.28Z"/><path class="cls-8" d="M387.28,300.28a6.89,6.89,0,0,1,2.86,0A6.57,6.57,0,0,1,387.28,300.28Z"/><path class="cls-8" d="M381.56,300.28a6.89,6.89,0,0,1,2.86,0A6.57,6.57,0,0,1,381.56,300.28Z"/><path class="cls-8" d="M375.84,300.28a6.94,6.94,0,0,1,2.87,0A6.62,6.62,0,0,1,375.84,300.28Z"/><path class="cls-8" d="M370.12,300.28a6.94,6.94,0,0,1,2.87,0A6.62,6.62,0,0,1,370.12,300.28Z"/><path class="cls-8" d="M364.41,300.28a6.89,6.89,0,0,1,2.86,0A6.57,6.57,0,0,1,364.41,300.28Z"/><path class="cls-8" d="M358.71,300.28a6.89,6.89,0,0,1,2.86,0A6.57,6.57,0,0,1,358.71,300.28Z"/><path class="cls-8" d="M353,300.28a6.89,6.89,0,0,1,2.86,0A6.57,6.57,0,0,1,353,300.28Z"/><path class="cls-8" d="M347.25,300.28a6.89,6.89,0,0,1,2.86,0A6.57,6.57,0,0,1,347.25,300.28Z"/><path class="cls-8" d="M341.53,300.28a6.94,6.94,0,0,1,2.87,0A6.62,6.62,0,0,1,341.53,300.28Z"/><path class="cls-8" d="M335.81,300.28a6.94,6.94,0,0,1,2.87,0A6.62,6.62,0,0,1,335.81,300.28Z"/><path class="cls-8" d="M330.09,300.28a6.94,6.94,0,0,1,2.87,0A6.62,6.62,0,0,1,330.09,300.28Z"/><path class="cls-8" d="M324.39,300.28a6.89,6.89,0,0,1,2.86,0A6.57,6.57,0,0,1,324.39,300.28Z"/><path class="cls-8" d="M318.66,300.28a6.89,6.89,0,0,1,2.86,0A6.57,6.57,0,0,1,318.66,300.28Z"/><path class="cls-8" d="M312.94,300.28a6.89,6.89,0,0,1,2.86,0A6.57,6.57,0,0,1,312.94,300.28Z"/><path class="cls-8" d="M307.22,300.28a6.89,6.89,0,0,1,2.86,0A6.57,6.57,0,0,1,307.22,300.28Z"/><path class="cls-8" d="M302.91,298.84a3.56,3.56,0,0,1,.15,1.45l-.15-.15h1c.26,0,.42.07.42.11s-.16.08-.42.11h-1l-.15-.15A3.34,3.34,0,0,1,302.91,298.84Z"/><path class="cls-8" d="M302.91,293.6a5.84,5.84,0,0,1,0,2.63A5.57,5.57,0,0,1,302.91,293.6Z"/><path class="cls-8" d="M302.91,288.3a5.84,5.84,0,0,1,0,2.63A5.57,5.57,0,0,1,302.91,288.3Z"/><path class="cls-8" d="M302.91,283a5.84,5.84,0,0,1,0,2.63A5.57,5.57,0,0,1,302.91,283Z"/><path class="cls-8" d="M302.91,277.78a5.84,5.84,0,0,1,0,2.63A5.57,5.57,0,0,1,302.91,277.78Z"/><path class="cls-8" d="M302.91,272.51a5.84,5.84,0,0,1,0,2.63A5.57,5.57,0,0,1,302.91,272.51Z"/><path class="cls-8" d="M304.36,268.43a3.56,3.56,0,0,1-1.45.15l.15-.15h0V269a1.77,1.77,0,0,1,0,.46c0,.27-.07.43-.11.43s-.08-.16-.11-.43a3.53,3.53,0,0,0,0-.46.66.66,0,0,1,0-.28v-.28h0l.15-.15A3.34,3.34,0,0,1,304.36,268.43Z"/><path class="cls-8" d="M310.08,268.43a6.89,6.89,0,0,1-2.86,0A6.89,6.89,0,0,1,310.08,268.43Z"/><path class="cls-8" d="M315.8,268.43a6.89,6.89,0,0,1-2.86,0A6.89,6.89,0,0,1,315.8,268.43Z"/><path class="cls-8" d="M321.52,268.43a6.89,6.89,0,0,1-2.86,0A6.89,6.89,0,0,1,321.52,268.43Z"/><path class="cls-8" d="M327.24,268.43a6.94,6.94,0,0,1-2.87,0A6.94,6.94,0,0,1,327.24,268.43Z"/><path class="cls-8" d="M333,268.43a6.94,6.94,0,0,1-2.87,0A6.94,6.94,0,0,1,333,268.43Z"/><path class="cls-8" d="M338.68,268.43a6.94,6.94,0,0,1-2.87,0A6.94,6.94,0,0,1,338.68,268.43Z"/><path class="cls-8" d="M344.4,268.43a6.94,6.94,0,0,1-2.87,0A6.94,6.94,0,0,1,344.4,268.43Z"/><path class="cls-8" d="M350.11,268.43a6.89,6.89,0,0,1-2.86,0A6.89,6.89,0,0,1,350.11,268.43Z"/><path class="cls-8" d="M355.8,268.43a6.84,6.84,0,0,1-2.85,0A6.84,6.84,0,0,1,355.8,268.43Z"/><path class="cls-8" d="M361.55,268.43a6.89,6.89,0,0,1-2.86,0A6.89,6.89,0,0,1,361.55,268.43Z"/><path class="cls-8" d="M367.27,268.43a6.89,6.89,0,0,1-2.86,0A6.89,6.89,0,0,1,367.27,268.43Z"/><path class="cls-8" d="M373,268.43a6.94,6.94,0,0,1-2.87,0A6.94,6.94,0,0,1,373,268.43Z"/><path class="cls-8" d="M378.71,268.43a6.94,6.94,0,0,1-2.87,0A6.94,6.94,0,0,1,378.71,268.43Z"/><path class="cls-8" d="M384.42,268.43a6.89,6.89,0,0,1-2.86,0A6.89,6.89,0,0,1,384.42,268.43Z"/><path class="cls-8" d="M390.13,268.43a6.89,6.89,0,0,1-2.86,0A6.89,6.89,0,0,1,390.13,268.43Z"/><path class="cls-8" d="M395.86,268.43a6.89,6.89,0,0,1-2.86,0A6.89,6.89,0,0,1,395.86,268.43Z"/><path class="cls-8" d="M401.58,268.43a6.89,6.89,0,0,1-2.86,0A6.89,6.89,0,0,1,401.58,268.43Z"/><path class="cls-8" d="M407.3,268.43a6.89,6.89,0,0,1-2.86,0A6.89,6.89,0,0,1,407.3,268.43Z"/><path class="cls-8" d="M413,268.43a6.89,6.89,0,0,1-2.86,0A6.89,6.89,0,0,1,413,268.43Z"/><path class="cls-8" d="M418.74,268.43a6.89,6.89,0,0,1-2.86,0A6.89,6.89,0,0,1,418.74,268.43Z"/><path class="cls-8" d="M424.46,268.43a6.89,6.89,0,0,1-2.86,0A6.89,6.89,0,0,1,424.46,268.43Z"/><path class="cls-8" d="M430.17,268.43a6.89,6.89,0,0,1-2.86,0A6.89,6.89,0,0,1,430.17,268.43Z"/><path class="cls-8" d="M435.89,268.43a6.89,6.89,0,0,1-2.86,0A6.89,6.89,0,0,1,435.89,268.43Z"/><path class="cls-8" d="M441.61,268.43a6.89,6.89,0,0,1-2.86,0A6.89,6.89,0,0,1,441.61,268.43Z"/><path class="cls-8" d="M445.92,269.88a3.74,3.74,0,0,1-.15-1.45l.15.15h-.58a1.77,1.77,0,0,1-.46,0c-.27,0-.43-.07-.43-.11s.16-.08.43-.11h1l.15.15A3.73,3.73,0,0,1,445.92,269.88Z"/><path class="cls-8" d="M445.92,275.14a5.84,5.84,0,0,1,0-2.63A5.84,5.84,0,0,1,445.92,275.14Z"/><path class="cls-8" d="M445.92,280.41a5.84,5.84,0,0,1,0-2.63A5.84,5.84,0,0,1,445.92,280.41Z"/><path class="cls-8" d="M445.92,285.67a5.84,5.84,0,0,1,0-2.63A5.57,5.57,0,0,1,445.92,285.67Z"/><path class="cls-8" d="M445.92,290.93a5.84,5.84,0,0,1,0-2.63A5.84,5.84,0,0,1,445.92,290.93Z"/><path class="cls-8" d="M445.92,296.2a5.84,5.84,0,0,1,0-2.63A5.84,5.84,0,0,1,445.92,296.2Z"/><rect class="cls-7" x="303.05" y="223.74" width="142.88" height="37.63"/><path class="cls-8" d="M445.92,261.37v-9.92c0-6.43,0-15.82-.05-27.71l.09.09-142.86.06h0l.15-.15v37.63l-.15-.16,102,.07,30,.05H405.17l-102.11.07H303V223.51h.16l142.87.06h.1v.09c0,11.91-.05,21.33-.06,27.77v9.23A2.2,2.2,0,0,1,445.92,261.37Z"/><path class="cls-8" d="M314.5,229.33a20.2,20.2,0,0,1-4.79,0A20.2,20.2,0,0,1,314.5,229.33Z"/><path class="cls-8" d="M314.5,234.63a20.2,20.2,0,0,1-4.79,0A19.2,19.2,0,0,1,314.5,234.63Z"/><path class="cls-8" d="M314.5,239.92a20.2,20.2,0,0,1-4.79,0A20.2,20.2,0,0,1,314.5,239.92Z"/><path class="cls-8" d="M314.5,245.21a19.2,19.2,0,0,1-4.79,0A20.2,20.2,0,0,1,314.5,245.21Z"/><path class="cls-8" d="M314.5,250.51a20.2,20.2,0,0,1-4.79,0A20.2,20.2,0,0,1,314.5,250.51Z"/><path class="cls-8" d="M314.5,255.78a20.2,20.2,0,0,1-4.79,0A20.2,20.2,0,0,1,314.5,255.78Z"/><path class="cls-9" d="M333.64,255.78c0,.08-2.78.15-6.2.15s-6.21-.07-6.21-.15,2.78-.14,6.21-.14S333.64,255.72,333.64,255.78Z"/><path class="cls-2" d="M333.64,250.51c0,.08-2.78.14-6.2.14s-6.21-.06-6.21-.14,2.78-.15,6.21-.15S333.64,250.43,333.64,250.51Z"/><path class="cls-9" d="M350.93,229.3c0,.08-5.2.15-11.64.15s-11.63-.07-11.63-.15,5.2-.14,11.63-.14S350.93,229.22,350.93,229.3Z"/><path class="cls-8" d="M377.79,229.3c0,.08-5.21.15-11.64.15s-11.64-.07-11.64-.15,5.2-.14,11.64-.14S377.79,229.22,377.79,229.3Z"/><path class="cls-8" d="M367.52,234.6c0,.07-7.66.14-17.11.14s-17.12-.07-17.12-.14,7.67-.15,17.12-.15S367.52,234.52,367.52,234.6Z"/><path class="cls-8" d="M367.52,239.89c0,.08-7.66.14-17.11.14s-17.12-.06-17.12-.14,7.67-.14,17.12-.14S367.52,239.81,367.52,239.89Z"/><path class="cls-8" d="M380.92,245.18c0,.08-7.67.15-17.11.15s-17.12-.07-17.12-.15,7.66-.14,17.12-.14S380.92,245.1,380.92,245.18Z"/><path class="cls-8" d="M422.74,245.18c0,.08-7.66.15-17.11.15s-17.11-.07-17.11-.15,7.66-.14,17.11-.14S422.74,245.1,422.74,245.18Z"/><path class="cls-7" d="M408.2,234.6c0,.07-7.66.14-17.11.14S374,234.67,374,234.6s7.66-.15,17.12-.15S408.2,234.52,408.2,234.6Z"/><path class="cls-2" d="M427.12,239.89c0,.08-11.9.14-26.57.14S374,240,374,239.89s11.9-.14,26.58-.14S427.12,239.81,427.12,239.89Z"/><path class="cls-2" d="M339.79,245.18c0,.08-2.78.15-6.2.15s-6.21-.07-6.21-.15,2.78-.14,6.21-.14S339.79,245.1,339.79,245.18Z"/><path class="cls-9" d="M439.29,245.18c0,.08-2.79.15-6.21.15s-6.21-.07-6.21-.15,2.78-.14,6.21-.14S439.29,245.1,439.29,245.18Z"/><rect class="cls-7" x="303.55" y="130.87" width="142.38" height="50.56"/><path class="cls-8" d="M445.92,181.43V168c0-8.69,0-21.32-.05-37.1l.1.1H303.6l.15-.15v50.56l-.15-.15,102,.07h.06l-102.06.07h-.15V130.69h.15l142.38.05h.1v.11C446,146.68,446,159.33,446,168v12.53A3.92,3.92,0,0,1,445.92,181.43Z"/><path class="cls-8" d="M445.94,141.65c0,.08-31.84.15-71.1.15s-71.11-.06-71.11-.15,31.83-.15,71.11-.15S445.94,141.56,445.94,141.65Z"/><path class="cls-8" d="M311.41,136.44a1.34,1.34,0,1,1-1.34-1.34h0A1.34,1.34,0,0,1,311.41,136.44Z"/><path class="cls-8" d="M316.09,136.44a1.34,1.34,0,1,1-1.34-1.34h0A1.34,1.34,0,0,1,316.09,136.44Z"/><path class="cls-8" d="M320.43,136.44a1.34,1.34,0,1,1-1.34-1.34h0A1.34,1.34,0,0,1,320.43,136.44Z"/><path class="cls-8" d="M315.59,152.72a18.71,18.71,0,0,1-4.61,0A17.79,17.79,0,0,1,315.59,152.72Z"/><path class="cls-8" d="M315.76,147.81a18.63,18.63,0,0,1-4.6,0A17.71,17.71,0,0,1,315.76,147.81Z"/><path class="cls-8" d="M315.59,158a17.63,17.63,0,0,1-4.59,0,18.71,18.71,0,0,1,4.61,0Z"/><path class="cls-8" d="M315.59,163.31a19.75,19.75,0,0,1-4.61,0A17.79,17.79,0,0,1,315.59,163.31Z"/><path class="cls-8" d="M315.59,168.6a18.71,18.71,0,0,1-4.61,0A18.71,18.71,0,0,1,315.59,168.6Z"/><path class="cls-8" d="M315.59,173.89a18.71,18.71,0,0,1-4.61,0A18.71,18.71,0,0,1,315.59,173.89Z"/><path class="cls-9" d="M334,152.4c0,.08-2.67.15-6,.15s-6-.07-6-.15,2.68-.14,6-.14S334,152.33,334,152.4Z"/><path class="cls-9" d="M350.69,163.31c0,.07-5,.14-11.18.14s-11.18-.07-11.18-.14,5-.15,11.18-.15S350.69,163.22,350.69,163.31Z"/><path class="cls-8" d="M376.55,163.31c0,.07-5,.14-11.18.14s-11.18-.07-11.18-.14,5-.15,11.18-.15S376.55,163.22,376.55,163.31Z"/><path class="cls-8" d="M366.67,168.6c0,.08-7.38.14-16.48.14s-16.48-.06-16.48-.14,7.37-.15,16.48-.15S366.67,168.51,366.67,168.6Z"/><path class="cls-8" d="M366.67,173.89c0,.08-7.38.14-16.48.14s-16.48-.06-16.48-.14,7.37-.14,16.48-.14S366.67,173.81,366.67,173.89Z"/><path class="cls-8" d="M405.84,168.6c0,.08-7.38.14-16.48.14s-16.47-.06-16.47-.14,7.37-.15,16.47-.15S405.84,168.51,405.84,168.6Z"/><path class="cls-2" d="M424.05,173.89c0,.08-11.46.14-25.6.14s-25.6-.06-25.6-.14,11.45-.14,25.6-.14S424.05,173.81,424.05,173.89Z"/><path class="cls-8" d="M334,158q-6,.3-12,0c0-.08,2.68-.14,6-.14A57.23,57.23,0,0,1,334,158Z"/><path class="cls-8" d="M319.53,177.64c-.08,0-.15-7.56-.15-16.84s.07-16.83.15-16.83.16,7.57.16,16.83S319.62,177.64,319.53,177.64Z"/><path class="cls-7" d="M341.84,183.77c0,.08-2.68.14-6,.14s-6-.06-6-.14,2.64-.14,6-.14S341.84,183.69,341.84,183.77Z"/><path class="cls-8" d="M444.47,216.66a3.56,3.56,0,0,1,1.45-.15l-.15.15h0v-.55a1.77,1.77,0,0,1,0-.46c0-.27.06-.43.1-.43s.08.16.11.43v.46a1.22,1.22,0,0,1,0,.27v.28h0l-.15.16A3.68,3.68,0,0,1,444.47,216.66Z"/><path class="cls-8" d="M438.55,216.66a7.22,7.22,0,0,1,3,0A6.9,6.9,0,0,1,438.55,216.66Z"/><path class="cls-8" d="M432.63,216.66a7.58,7.58,0,0,1,3,0A7.22,7.22,0,0,1,432.63,216.66Z"/><path class="cls-8" d="M426.72,216.66a7.22,7.22,0,0,1,3,0A6.9,6.9,0,0,1,426.72,216.66Z"/><path class="cls-8" d="M420.81,216.66a7.33,7.33,0,0,1,2.95,0A7,7,0,0,1,420.81,216.66Z"/><path class="cls-8" d="M414.89,216.66a7.33,7.33,0,0,1,2.95,0A7,7,0,0,1,414.89,216.66Z"/><path class="cls-8" d="M409,216.66a7.22,7.22,0,0,1,3,0A6.9,6.9,0,0,1,409,216.66Z"/><path class="cls-8" d="M403.05,216.66a7.58,7.58,0,0,1,3,0A7.22,7.22,0,0,1,403.05,216.66Z"/><path class="cls-8" d="M397.11,216.66a7.58,7.58,0,0,1,3,0A7.22,7.22,0,0,1,397.11,216.66Z"/><path class="cls-8" d="M391.23,216.66a7.33,7.33,0,0,1,2.95,0A7,7,0,0,1,391.23,216.66Z"/><path class="cls-8" d="M385.31,216.66a7.33,7.33,0,0,1,2.95,0A7,7,0,0,1,385.31,216.66Z"/><path class="cls-8" d="M379.39,216.66a7.22,7.22,0,0,1,3,0A6.9,6.9,0,0,1,379.39,216.66Z"/><path class="cls-8" d="M373.47,216.66a7.58,7.58,0,0,1,3,0A7.22,7.22,0,0,1,373.47,216.66Z"/><path class="cls-8" d="M367.56,216.66a7.22,7.22,0,0,1,3,0A6.9,6.9,0,0,1,367.56,216.66Z"/><path class="cls-8" d="M361.62,216.66a7.22,7.22,0,0,1,3,0A6.9,6.9,0,0,1,361.62,216.66Z"/><path class="cls-8" d="M355.73,216.66a7.33,7.33,0,0,1,2.95,0A7,7,0,0,1,355.73,216.66Z"/><path class="cls-8" d="M349.81,216.66a7.22,7.22,0,0,1,3,0A6.9,6.9,0,0,1,349.81,216.66Z"/><path class="cls-8" d="M343.89,216.66a7.22,7.22,0,0,1,3,0A6.9,6.9,0,0,1,343.89,216.66Z"/><path class="cls-8" d="M338,216.66a7.22,7.22,0,0,1,3,0A6.9,6.9,0,0,1,338,216.66Z"/><path class="cls-8" d="M332.06,216.66a7.22,7.22,0,0,1,3,0A6.9,6.9,0,0,1,332.06,216.66Z"/><path class="cls-8" d="M326.13,216.66a7.22,7.22,0,0,1,3,0A6.9,6.9,0,0,1,326.13,216.66Z"/><path class="cls-8" d="M320.23,216.66a7.22,7.22,0,0,1,3,0A6.9,6.9,0,0,1,320.23,216.66Z"/><path class="cls-8" d="M314.32,216.66a7.33,7.33,0,0,1,2.95,0A7,7,0,0,1,314.32,216.66Z"/><path class="cls-8" d="M308.4,216.66a7.22,7.22,0,0,1,3,0A6.9,6.9,0,0,1,308.4,216.66Z"/><path class="cls-8" d="M304,215.21a3.56,3.56,0,0,1,.15,1.45l-.15-.15h1c.27,0,.43.07.43.11s-.16.08-.43.11h-1l-.15-.15A3.53,3.53,0,0,1,304,215.21Z"/><path class="cls-8" d="M304,209.23a7.58,7.58,0,0,1,0,3A7.57,7.57,0,0,1,304,209.23Z"/><path class="cls-8" d="M304,203.3a7.58,7.58,0,0,1,0,3A7.57,7.57,0,0,1,304,203.3Z"/><path class="cls-8" d="M304,197.34a7.58,7.58,0,0,1,0,3A7.57,7.57,0,0,1,304,197.34Z"/><path class="cls-8" d="M304,191.39a7.58,7.58,0,0,1,0,3A7.57,7.57,0,0,1,304,191.39Z"/><path class="cls-8" d="M305.44,187a3.74,3.74,0,0,1-1.45.15l.15-.15h0v.54a1.85,1.85,0,0,1,0,.47c0,.26-.06.42-.1.42s-.08-.16-.11-.42a3.69,3.69,0,0,0,0-.47V187h0l.15-.15A3.48,3.48,0,0,1,305.44,187Z"/><path class="cls-8" d="M311.35,187a7.22,7.22,0,0,1-3,0A7.22,7.22,0,0,1,311.35,187Z"/><path class="cls-8" d="M317.27,187a7.33,7.33,0,0,1-2.95,0A7.33,7.33,0,0,1,317.27,187Z"/><path class="cls-8" d="M323.19,187a7.22,7.22,0,0,1-3,0A7.22,7.22,0,0,1,323.19,187Z"/><path class="cls-8" d="M329.1,187a7.22,7.22,0,0,1-3,0A7.22,7.22,0,0,1,329.1,187Z"/><path class="cls-8" d="M335,187a7.22,7.22,0,0,1-3,0A7.22,7.22,0,0,1,335,187Z"/><path class="cls-8" d="M340.94,187a7.22,7.22,0,0,1-3,0A7.22,7.22,0,0,1,340.94,187Z"/><path class="cls-8" d="M346.85,187a7.22,7.22,0,0,1-3,0A7.22,7.22,0,0,1,346.85,187Z"/><path class="cls-8" d="M352.77,187a7.22,7.22,0,0,1-3,0A7.22,7.22,0,0,1,352.77,187Z"/><path class="cls-8" d="M358.71,187a7.33,7.33,0,0,1-2.95,0A7.33,7.33,0,0,1,358.71,187Z"/><path class="cls-8" d="M364.6,187a7.22,7.22,0,0,1-3,0A7.22,7.22,0,0,1,364.6,187Z"/><path class="cls-8" d="M370.52,187a7.22,7.22,0,0,1-3,0A7.22,7.22,0,0,1,370.52,187Z"/><path class="cls-8" d="M376.44,187a7.58,7.58,0,0,1-3,0A7.58,7.58,0,0,1,376.44,187Z"/><path class="cls-8" d="M382.35,187a7.22,7.22,0,0,1-3,0A7.22,7.22,0,0,1,382.35,187Z"/><path class="cls-8" d="M388.26,187a7.33,7.33,0,0,1-2.95,0A7.33,7.33,0,0,1,388.26,187Z"/><path class="cls-8" d="M394.21,187a7.22,7.22,0,0,1-3,0A7.22,7.22,0,0,1,394.21,187Z"/><path class="cls-8" d="M400.1,187a7.22,7.22,0,0,1-3,0A7.22,7.22,0,0,1,400.1,187Z"/><path class="cls-8" d="M406,187a7.58,7.58,0,0,1-3,0A7.57,7.57,0,0,1,406,187Z"/><path class="cls-8" d="M411.93,187a7.22,7.22,0,0,1-3,0A7.22,7.22,0,0,1,411.93,187Z"/><path class="cls-8" d="M417.84,187a7.33,7.33,0,0,1-2.95,0A7.33,7.33,0,0,1,417.84,187Z"/><path class="cls-8" d="M423.76,187a7.33,7.33,0,0,1-2.95,0A7.33,7.33,0,0,1,423.76,187Z"/><path class="cls-8" d="M429.7,187a7.22,7.22,0,0,1-3,0A7.22,7.22,0,0,1,429.7,187Z"/><path class="cls-8" d="M435.6,187a7.57,7.57,0,0,1-3,0A7.57,7.57,0,0,1,435.6,187Z"/><path class="cls-8" d="M441.51,187a7.22,7.22,0,0,1-3,0A7.22,7.22,0,0,1,441.51,187Z"/><path class="cls-8" d="M445.92,188.41a3.74,3.74,0,0,1-.15-1.45l.15.15h-.58a1.77,1.77,0,0,1-.46,0c-.27,0-.43-.06-.43-.1s.16-.08.43-.11a2.29,2.29,0,0,1,.46,0h.57l.15.15A3.67,3.67,0,0,1,445.92,188.41Z"/><path class="cls-8" d="M445.92,194.36a7.57,7.57,0,0,1,0-3A7.22,7.22,0,0,1,445.92,194.36Z"/><path class="cls-8" d="M445.92,200.32a7.57,7.57,0,0,1,0-3A7.22,7.22,0,0,1,445.92,200.32Z"/><path class="cls-8" d="M445.92,206.27a7.57,7.57,0,0,1,0-3A7.22,7.22,0,0,1,445.92,206.27Z"/><path class="cls-8" d="M445.92,212.23a7.57,7.57,0,0,1,0-3A7.22,7.22,0,0,1,445.92,212.23Z"/><path class="cls-2" d="M317.31,259.15c-.09,0-.15-7.44-.15-16.6s.06-16.59.15-16.59.15,7.43.15,16.59S317.4,259.15,317.31,259.15Z"/></g><g id="freepik--character-3--inject-40"><path class="cls-2" d="M493.3,367.14l.26,18.85-23.44.45c.1-2.24,12.14-7,12.14-7l-.66-12.06Z"/><path class="cls-8" d="M481.87,379.35c0,.12.59.16,1.17.52s.88.83,1,.78-.08-.7-.78-1.12S481.85,379.25,481.87,379.35Z"/><path class="cls-8" d="M479.44,380.42c0,.11.47.3.87.77s.52,1,.63,1,.18-.66-.33-1.24S479.44,380.29,479.44,380.42Z"/><path class="cls-8" d="M478.09,383.39c.11,0,.26-.56,0-1.17s-.84-.86-.89-.77.29.43.54.95S478,383.38,478.09,383.39Z"/><path class="cls-8" d="M482,376.59c.05.1.58-.07,1.22,0s1.16.22,1.21.12-.43-.5-1.19-.53A1.45,1.45,0,0,0,482,376.59Z"/><path class="cls-8" d="M482.53,373.8a2.32,2.32,0,0,0,1.17,0,5.81,5.81,0,0,0,1.22-.4,6.38,6.38,0,0,0,.67-.38,1.35,1.35,0,0,0,.35-.28.51.51,0,0,0,0-.58.64.64,0,0,0-.51-.26,1.62,1.62,0,0,0-.44.07,4.44,4.44,0,0,0-.72.27,3.76,3.76,0,0,0-1.07.73,2,2,0,0,0-.68,1,11.19,11.19,0,0,1,.86-.75,4.87,4.87,0,0,1,1-.61,4,4,0,0,1,.67-.22c.24-.07.45-.08.52,0s0,.06,0,.14a1,1,0,0,1-.26.2,4.72,4.72,0,0,1-.61.37,7.76,7.76,0,0,1-1.12.46A6.15,6.15,0,0,0,482.53,373.8Z"/><path class="cls-8" d="M482.69,374a1.86,1.86,0,0,0,.28-1.17,3.81,3.81,0,0,0-.49-2,1,1,0,0,0-.76-.58.55.55,0,0,0-.49.34,2.09,2.09,0,0,0-.11.43,2.61,2.61,0,0,0,.52,2c.47.59.95.73,1,.69a5.37,5.37,0,0,1-.73-.85,2.65,2.65,0,0,1-.39-1.09,2.58,2.58,0,0,1,0-.68c0-.25.12-.46.21-.43a.8.8,0,0,1,.42.37,5.38,5.38,0,0,1,.31.64,4.53,4.53,0,0,1,.25,1.16C482.74,373.51,482.64,373.94,482.69,374Z"/><path class="cls-2" d="M502.88,367.14,502.62,386l23.44.45c-.09-2.24-12.13-7-12.13-7l.66-12.06Z"/><path class="cls-8" d="M514.31,379.35c0,.12-.59.16-1.17.52s-.88.83-1,.78.07-.7.77-1.12S514.33,379.25,514.31,379.35Z"/><path class="cls-8" d="M516.75,380.42c0,.11-.48.3-.88.77s-.52,1-.63,1-.17-.66.33-1.24S516.75,380.29,516.75,380.42Z"/><path class="cls-8" d="M518.09,383.39c-.11,0-.25-.56,0-1.17s.85-.86.9-.77-.29.43-.54.95S518.2,383.38,518.09,383.39Z"/><path class="cls-8" d="M514.15,376.59c0,.1-.58-.07-1.22,0s-1.16.22-1.21.12.43-.5,1.2-.53S514.21,376.5,514.15,376.59Z"/><path class="cls-8" d="M513.65,373.8a2.32,2.32,0,0,1-1.17,0,5.81,5.81,0,0,1-1.22-.4,5.38,5.38,0,0,1-.66-.38,1.93,1.93,0,0,1-.36-.28.51.51,0,0,1,0-.58.66.66,0,0,1,.52-.26,1.55,1.55,0,0,1,.43.07,4.93,4.93,0,0,1,.73.27A3.86,3.86,0,0,1,513,373c.54.51.72.94.68,1s-.31-.32-.86-.75a4.87,4.87,0,0,0-1-.61,5.25,5.25,0,0,0-.67-.22c-.25-.07-.46-.08-.52,0s0,.06,0,.14a1,1,0,0,0,.25.2,5.51,5.51,0,0,0,.61.37,7.43,7.43,0,0,0,1.13.46A6.15,6.15,0,0,1,513.65,373.8Z"/><path class="cls-8" d="M513.48,374a1.87,1.87,0,0,1-.29-1.17,4,4,0,0,1,.18-1.28,6.43,6.43,0,0,1,.32-.71,1,1,0,0,1,.76-.58.54.54,0,0,1,.48.34,1.3,1.3,0,0,1,.11.43,2.1,2.1,0,0,1,0,.79,2.64,2.64,0,0,1-.52,1.2c-.46.59-.95.73-.95.69a5.31,5.31,0,0,0,.72-.85,2.65,2.65,0,0,0,.39-1.09,1.94,1.94,0,0,0,0-.68c0-.25-.12-.46-.21-.43a.84.84,0,0,0-.42.37,3.73,3.73,0,0,0-.3.64,3.82,3.82,0,0,0-.25,1.16C513.44,373.51,513.56,373.94,513.48,374Z"/><path class="cls-4" d="M522.74,258.07l-36.07,3.65v2.73l-3.17,5.47s-3.28,3.28-.94,9.38v3.91a46.52,46.52,0,0,1-.84,4.69c-.58,2.32-.58,89.88-.58,89.88l13.66,1,9.45-88.37-2,87.43,14-.41,11.89-103.56h0Z"/><path class="cls-2" d="M504.34,292.53a5.12,5.12,0,0,1-.08-.87c0-.64-.08-1.42-.13-2.35-.15-2.09-.33-4.79-.54-7.78s-.38-5.82-.43-7.8v-2.37a4.26,4.26,0,0,1,.07-.87,4.28,4.28,0,0,1,.09.87c0,.64.08,1.43.13,2.36.14,2.08.33,4.78.54,7.78s.38,5.82.42,7.79v2.37A3.2,3.2,0,0,1,504.34,292.53Z"/><path class="cls-2" d="M512.37,263.88c-.12,0,0-1.05-.23-2.33a16.46,16.46,0,0,1-.44-2.28,4.06,4.06,0,0,1,.83,2.22A4.33,4.33,0,0,1,512.37,263.88Z"/><path class="cls-2" d="M515.42,262.86a5.06,5.06,0,0,1-.36-1.84,5.45,5.45,0,0,1,0-1.89,4.91,4.91,0,0,1,.36,1.85A4.58,4.58,0,0,1,515.42,262.86Z"/><path class="cls-2" d="M491.68,265.75a3.58,3.58,0,0,1-.32-2.16,3.78,3.78,0,0,1,.67-2.08c.09,0-.19.95-.28,2.11A19,19,0,0,1,491.68,265.75Z"/><path class="cls-2" d="M494.72,265.24a4.82,4.82,0,0,1-.12-2,4.89,4.89,0,0,1,.27-1.93,5,5,0,0,1,.11,2A5.49,5.49,0,0,1,494.72,265.24Z"/><path class="cls-2" d="M487.45,266.08a9.59,9.59,0,0,1-2.05,2.84,10.21,10.21,0,0,1-2.69,2.25c-.06-.08,1.1-1.11,2.41-2.51S487.36,266,487.45,266.08Z"/><path class="cls-2" d="M528.27,272.92a6.1,6.1,0,0,1-1.51-1,18,18,0,0,1-5.34-6.72,6,6,0,0,1-.59-1.69,36.13,36.13,0,0,0,3.17,5.13A40.13,40.13,0,0,0,528.27,272.92Z"/><path class="cls-2" d="M505.82,262.57a.49.49,0,0,1,.28-.11,1.2,1.2,0,0,1,.8.23,1.39,1.39,0,0,1,.58,1.09,1.38,1.38,0,0,1-1.46,1.29,1.36,1.36,0,0,1-.94-.45,1.42,1.42,0,0,1-.21-1.23,1.25,1.25,0,0,1,.48-.67c.17-.11.28-.11.29-.09a1.27,1.27,0,0,0-.5.83,1.14,1.14,0,0,0,.22.93,1,1,0,0,0,1.48-.08,1,1,0,0,0,.26-.54,1.15,1.15,0,0,0-.42-.86A1.7,1.7,0,0,0,505.82,262.57Z"/><path class="cls-9" d="M488.79,207.18s-5,.48-6.54,4.78c-1,2.91-5.32,21.61-5.32,21.61l-14.3,1.64v3.12s11,9.94,15.35,10,5.41-1.62,7.1-2.91S488.79,207.18,488.79,207.18Z"/><path class="cls-9" d="M525.7,252.82l-2.45-25.46.19-9.62.1-9.42-15.21-6.11-10.56,1.36-10.2,3.86.31,26.56-2.61,16.29s-1.11,8.73-.3,10a4.94,4.94,0,0,0,1.57,1.55l36.07-3.65.55-.33A5.25,5.25,0,0,0,525.7,252.82Z"/><path class="cls-8" d="M513.74,177c-.08-1.92-1-4.52-2.49-5.69-1-.76-2.44-.24-3.62-.68-1.5-.59-2.65-2.33-4.07-3.1s-3.18-1.28-4.61-.53a17.9,17.9,0,0,1-2,1.28,22.18,22.18,0,0,1-2.69.44,3.42,3.42,0,0,0-2.37,3.9,3,3,0,0,0,.25,5.74c1.05.2,2.23-.16,3.15.39s1.13,1.94,1,3.06a7.67,7.67,0,0,0-.06,3.37l15.32,2.91a42.92,42.92,0,0,0,1.54-4.29C514,181.75,513.82,179.24,513.74,177Z"/><path class="cls-10" d="M511.15,186.57c.1,0,4-1.25,3.93,2.74s-4.07,3.1-4.07,3S511.15,186.57,511.15,186.57Z"/><path class="cls-11" d="M512.26,190.81l.18.1a.67.67,0,0,0,.52,0,1.73,1.73,0,0,0,.82-1.53,2.46,2.46,0,0,0-.18-1,.85.85,0,0,0-.52-.54.36.36,0,0,0-.41.19v.2s-.08-.07,0-.24a.42.42,0,0,1,.16-.25.52.52,0,0,1,.38-.09,1,1,0,0,1,.72.63,2.51,2.51,0,0,1,.23,1.11,1.79,1.79,0,0,1-1,1.71.71.71,0,0,1-.63-.12C512.26,190.9,512.24,190.81,512.26,190.81Z"/><path class="cls-10" d="M490.94,194.69c-.09-2.82.21-8.63.55-13.88a10.87,10.87,0,0,1,10.65-10.19h.58c6.08.24,9.26,5.54,8.84,11.64l-.52,21.1-.87.58a12,12,0,0,1-13.14-.06h0v-2.49S491.11,200.54,490.94,194.69Z"/><path class="cls-11" d="M497,201.35a13.58,13.58,0,0,0,7.56-2.3s-1.68,4.3-7.51,3.87Z"/><path class="cls-8" d="M492.67,185.43a.82.82,0,0,0,.82.82h0a.8.8,0,0,0,.85-.75h0a.85.85,0,0,0-.82-.83.8.8,0,0,0-.85.74Z"/><path class="cls-8" d="M501.1,185.76a.84.84,0,0,0,.82.82.79.79,0,0,0,.84-.74v0h0A.83.83,0,0,0,502,185a.8.8,0,0,0-.85.74Z"/><path class="cls-8" d="M492.74,183.49c.1.11.72-.37,1.62-.38s1.56.43,1.66.31-.07-.24-.36-.44a2.22,2.22,0,0,0-1.32-.39,2.15,2.15,0,0,0-1.29.45C492.78,183.25,492.69,183.45,492.74,183.49Z"/><path class="cls-8" d="M501.31,183.55c.11.1.71-.42,1.6-.49s1.59.32,1.67.21-.07-.24-.37-.43a2.35,2.35,0,0,0-1.35-.29,2.21,2.21,0,0,0-1.27.52C501.34,183.3,501.26,183.51,501.31,183.55Z"/><path class="cls-8" d="M498.46,190.38a5.13,5.13,0,0,0-1.46-.24c-.22,0-.45-.06-.49-.22a1.16,1.16,0,0,1,.15-.68l.64-1.75a28.3,28.3,0,0,0,1.44-4.58,29.59,29.59,0,0,0-1.8,4.45l-.62,1.75a1.34,1.34,0,0,0-.1.9.6.6,0,0,0,.38.33H497A6.58,6.58,0,0,0,498.46,190.38Z"/><path class="cls-8" d="M501.11,191c-.15,0-.13,1-.95,1.67s-1.85.61-1.86.75.23.19.67.19a2.43,2.43,0,0,0,1.56-.58,2.08,2.08,0,0,0,.73-1.4C501.29,191.2,501.18,190.94,501.11,191Z"/><path class="cls-8" d="M501.35,179.75c.11.24,1,0,2,.05s1.93.22,2,0-.12-.33-.48-.52a3.52,3.52,0,0,0-3.13,0C501.47,179.43,501.3,179.64,501.35,179.75Z"/><path class="cls-8" d="M492.87,180.65c.15.2.77,0,1.51,0s1.37.11,1.52-.11,0-.3-.32-.49a2.21,2.21,0,0,0-2.45.12C492.88,180.34,492.79,180.56,492.87,180.65Z"/><path class="cls-8" d="M497.86,170.18c2-.89,4.13-.53,6.33-.29a10,10,0,0,1,4.57,1.57,8.74,8.74,0,0,1,3.81,6.55,25.88,25.88,0,0,1-.54,8.32h-.22a3.11,3.11,0,0,1-.09,2.43,1.16,1.16,0,0,1-1.3.58c-.83-.24-.89-1.3-.86-2.13a48.77,48.77,0,0,0-.19-7.45c-.19-2-1.09-4.24-2.7-5.14a7,7,0,0,0-7.08.14,2.12,2.12,0,0,1-2.25.07c-1.56-.92-2.87-.87-3.81.36A7.17,7.17,0,0,1,497.86,170.18Z"/><path class="cls-2" d="M493.87,188.09a3,3,0,0,0,.42-.06,3.11,3.11,0,0,0,1.07-.38,3.45,3.45,0,0,0,.64-.5,3.09,3.09,0,0,0,.54-.76,2.91,2.91,0,0,0,.31-1v-1.16l.06.07h-6.83l.07-.07a9.69,9.69,0,0,0,0,1.32,3.19,3.19,0,0,0,.42,1.11,3,3,0,0,0,1.51,1.23,3.27,3.27,0,0,0,1.28.2h0a3.24,3.24,0,0,1-1.31-.16,3.17,3.17,0,0,1-1.59-1.25,2.88,2.88,0,0,1-.44-1.16,7.63,7.63,0,0,1-.06-1.35v-.08h7v1.34a2.75,2.75,0,0,1-.33,1,3.12,3.12,0,0,1-1.24,1.28,2.89,2.89,0,0,1-1.11.35h-.43Z"/><path class="cls-2" d="M503.54,188.09A1.79,1.79,0,0,0,504,188a2.92,2.92,0,0,0,1.07-.38,3.12,3.12,0,0,0,1.19-1.26,3.19,3.19,0,0,0,.29-1V184.2l.07.07h-6.83l.08-.07a9.69,9.69,0,0,0,0,1.32,2.72,2.72,0,0,0,.42,1.11,3,3,0,0,0,1.5,1.23,3.27,3.27,0,0,0,1.28.2h0a3.24,3.24,0,0,1-1.31-.16,3.1,3.1,0,0,1-1.58-1.25,3.05,3.05,0,0,1-.45-1.16,8.71,8.71,0,0,1-.05-1.35v-.08h7v1.34a2.8,2.8,0,0,1-.33,1,3.17,3.17,0,0,1-.58.78,2.72,2.72,0,0,1-.67.5,2.89,2.89,0,0,1-1.11.35h-.45Z"/><path class="cls-2" d="M499.69,185.11a2.5,2.5,0,0,0-.34-.31,1.64,1.64,0,0,0-2-.05c-.23.16-.33.32-.36.3a.93.93,0,0,1,.29-.39,1.67,1.67,0,0,1,1.09-.4,1.6,1.6,0,0,1,1.07.45C499.64,184.92,499.71,185.1,499.69,185.11Z"/><path class="cls-2" d="M512.5,186.58a5.15,5.15,0,0,1-.87-.17c-.54-.12-1.27-.28-2.1-.44s-1.57-.26-2.11-.35a6.6,6.6,0,0,1-.87-.15,4.31,4.31,0,0,1,.88,0c.56.06,1.31.15,2.13.31s1.57.33,2.1.48A3.73,3.73,0,0,1,512.5,186.58Z"/><path class="cls-12" d="M493.63,187.71a1.85,1.85,0,0,1-.74-.06,3.43,3.43,0,0,1-1.61-.84,3,3,0,0,1-.9-1.56,1.59,1.59,0,0,1,0-.75,3,3,0,0,0,.13.72,3.23,3.23,0,0,0,.91,1.47,3.69,3.69,0,0,0,1.52.85A5.78,5.78,0,0,0,493.63,187.71Z"/><path class="cls-13" d="M513.68,176.36s-2.71,2.36-4.42,2.53a8.44,8.44,0,0,0-.47-1.63,10.12,10.12,0,0,0-1.44-2.21,8.49,8.49,0,0,0,5.75-1A8.43,8.43,0,0,1,513.68,176.36Z"/><path class="cls-13" d="M513.75,177.31a5.49,5.49,0,0,1-4.34,2.75,19.62,19.62,0,0,0,2.32-1.09A17.82,17.82,0,0,0,513.75,177.31Z"/><path class="cls-11" d="M503.76,186.64a1.66,1.66,0,0,1-1.21.75,1.52,1.52,0,0,1-1.39-.31,7.39,7.39,0,0,0,1.33,0A7.94,7.94,0,0,0,503.76,186.64Z"/><path class="cls-11" d="M494.5,186.72a1.7,1.7,0,0,1-1.3.21c-.74-.09-1.24-.46-1.2-.53.42.06.83.13,1.24.23A10.52,10.52,0,0,0,494.5,186.72Z"/><path class="cls-11" d="M502.13,191.62c-.08,0-.12-.25-.21-.51s-.19-.49-.13-.55.31.11.42.45S502.21,191.64,502.13,191.62Z"/><path class="cls-11" d="M508,200.86c-.08,0-.08-.42-.08-.93s0-.92.1-.93.21.4.2.93S508.09,200.88,508,200.86Z"/><polygon class="cls-14" points="434.64 219.85 524.48 274.82 542.95 246.3 453.05 191.47 434.64 219.85"/><path class="cls-13" d="M456.41,202.72a14.57,14.57,0,0,1-2.94-1.82,7.67,7.67,0,0,1,1.52.82A7,7,0,0,1,456.41,202.72Z"/><path class="cls-13" d="M458.39,199.83a7.47,7.47,0,0,1-1.53-.81,7.35,7.35,0,0,1-1.41-1,7.67,7.67,0,0,1,1.52.82A8.21,8.21,0,0,1,458.39,199.83Z"/><path class="cls-13" d="M454.4,205.9a6.8,6.8,0,0,1-1.52-.83,7.42,7.42,0,0,1-1.42-1A14.18,14.18,0,0,1,454.4,205.9Z"/><path class="cls-13" d="M452.39,209.08a8,8,0,0,1-1.53-.82,7.35,7.35,0,0,1-1.41-1,7.67,7.67,0,0,1,1.52.82A7.42,7.42,0,0,1,452.39,209.08Z"/><path class="cls-13" d="M450.39,212.26a7.51,7.51,0,0,1-1.53-.82,6.94,6.94,0,0,1-1.41-1,6.8,6.8,0,0,1,1.52.83A7.37,7.37,0,0,1,450.39,212.26Z"/><path class="cls-13" d="M448.38,215.44a7.51,7.51,0,0,1-1.53-.82,6.94,6.94,0,0,1-1.41-1,7.51,7.51,0,0,1,1.53.82A7.35,7.35,0,0,1,448.38,215.44Z"/><path class="cls-13" d="M446.37,218.62a7.19,7.19,0,0,1-1.52-.82,7.89,7.89,0,0,1-1.42-1,6.83,6.83,0,0,1,1.53.82A7.81,7.81,0,0,1,446.37,218.62Z"/><path class="cls-9" d="M468.32,209.82s-1.75-1-3.87-2.27a40.37,40.37,0,0,1-3.77-2.44c0-.05,1.75,1,3.87,2.26A38.58,38.58,0,0,1,468.32,209.82Z"/><path class="cls-9" d="M474.81,222.9s-3.25-1.88-7.2-4.32-7.11-4.43-7.08-4.49,3.25,1.89,7.19,4.32S474.84,222.86,474.81,222.9Z"/><path class="cls-13" d="M491.32,233.09s-3.25-1.89-7.19-4.32-7.12-4.44-7.09-4.48,3.25,1.88,7.2,4.31S491.37,233,491.32,233.09Z"/><path class="cls-13" d="M483,232.37s-4.76-2.82-10.57-6.4S462,219.45,462,219.39s4.77,2.83,10.58,6.4S483,232.33,483,232.37Z"/><path class="cls-13" d="M481,235.56s-4.76-2.83-10.57-6.4S460,222.63,460,222.58s4.76,2.82,10.57,6.4S481,235.5,481,235.56Z"/><path class="cls-13" d="M487.22,243.81c0,.05-4.77-2.81-10.58-6.4s-10.47-6.53-10.47-6.57,4.77,2.81,10.58,6.4S487.25,243.77,487.22,243.81Z"/><path class="cls-13" d="M512.93,259.67c0,.05-4.76-2.82-10.57-6.4s-10.48-6.53-10.48-6.58,4.77,2.82,10.58,6.4S513,259.63,512.93,259.67Z"/><path class="cls-7" d="M508,247.79c0,.05-4.76-2.81-10.57-6.4S487,234.86,487,234.82s4.77,2.81,10.58,6.4S508,247.75,508,247.79Z"/><path class="cls-8" d="M517.63,258.15c0,.05-7.37-4.42-16.39-10S485,238.05,485,238s7.36,4.42,16.39,10S517.66,258.11,517.63,258.15Z"/><path class="cls-7" d="M466.19,213.17s-1.75-1-3.87-2.27a37.84,37.84,0,0,1-3.76-2.44c0-.05,1.75,1,3.87,2.26A44,44,0,0,1,466.19,213.17Z"/><path class="cls-7" d="M461.94,228.22c0,.05-1.75-1-3.87-2.26a38.44,38.44,0,0,1-3.76-2.45s1.74,1,3.87,2.27A32.78,32.78,0,0,1,461.94,228.22Z"/><path class="cls-9" d="M523.1,265.94c0,.05-1.74-1-3.87-2.26a36.44,36.44,0,0,1-3.76-2.44s1.74,1,3.87,2.26A34.57,34.57,0,0,1,523.1,265.94Z"/><path class="cls-8" d="M446.1,224.23c-.07,0,3.54-5.72,8.06-12.66s8.25-12.55,8.32-12.5-3.54,5.71-8.06,12.66S446.17,224.27,446.1,224.23Z"/><path class="cls-9" d="M521.67,207.66a13.62,13.62,0,0,1,10.15,13.63c-.05,12.8,0,30.26-3.54,32.11-4.71,2.4-13.28,1.22-13.28,1.22l-1.81-11.36,5.69-1.51.37-24.61Z"/><path class="cls-8" d="M519.23,221.51a3.51,3.51,0,0,1,.06.79v9.35c0,2.8,0,5.34-.07,7.18,0,.87,0,1.6-.06,2.17a5.29,5.29,0,0,1-.06.8A3.51,3.51,0,0,1,519,241v-9.36c0-2.8,0-5.34.08-7.17V222.3A4.18,4.18,0,0,1,519.23,221.51Z"/><path class="cls-10" d="M488.46,252a28.75,28.75,0,0,1,4.54-5c.95-.6,3.28-.15,4.08.1s16.19-3.49,16.19-3.49l1.75,10.6-13-.45s-3.79,5.82-4.87,5.76a1.33,1.33,0,0,1-1.28-.83s-1.74,0-2-1.46c0,0-2,.22-1.82-1,0,0-.95,1.67-1.89,1.36s-1.28-.9-.74-1.78,2.24-4.13,2.24-4.13S489.32,253.27,488.46,252Z"/><path class="cls-10" d="M466.18,239s-3.34.59-4.92,0-7.78-6.21-7.78-6.21l-.36-5.87,3.68-3.49s1.4.71.17,2.28l-1.22,1.92s1.48-2.27,2.45-1.92a1.45,1.45,0,0,1,1,1.31s1.75-1,1.93.71a5.18,5.18,0,0,1-1,3.23l.17,3.76.79-3.1,2.18-1.88a1.28,1.28,0,0,1,.22,1.82h0v.05l-1.22,1.53.08,3.33Z"/><path class="cls-8" d="M524.42,248.94a17.72,17.72,0,0,0-5.72-7,4,4,0,0,1,1.17.68,13.33,13.33,0,0,1,4.12,5A4.35,4.35,0,0,1,524.42,248.94Z"/><path class="cls-8" d="M524,211.39a13.27,13.27,0,0,0-2.52,1.28,12.61,12.61,0,0,0-2,2,4.6,4.6,0,0,1,1.79-2.26A4.68,4.68,0,0,1,524,211.39Z"/></g><g id="freepik--character-2--inject-40"><path class="cls-8" d="M413.46,266.45l-13.79-5c.9,10.77,1.78,21.81-1.09,32.23-.31,1.13-.58,2.54.31,3.29a3,3,0,0,0,2,.45,36.09,36.09,0,0,0,4.28-.32,6.9,6.9,0,0,0,4.22-1.55A7.17,7.17,0,0,0,411,292.1,90,90,0,0,0,413.46,266.45Z"/><path class="cls-9" d="M358.56,301.7l22.15,4.7c2.5.8,5.77-.38,8.11-1.58l20.59-11.31L404,279.41h0a8.06,8.06,0,0,0-1.63.69L384.5,294.51l-24-1.95Z"/><polygon class="cls-7" points="303.53 318.56 441.08 330.5 444.9 294.9 307.38 282.17 303.53 318.56"/><path class="cls-8" d="M303.53,318.57l.06-.62.18-1.82c.17-1.61.42-4,.73-7.11.65-6.23,1.6-15.34,2.79-26.86v-.09h.1L444.48,294.7h.58v.16c-1.32,12.22-2.6,24.14-3.83,35.6v.14h-.15L342.77,322l-28.86-2.54-7.73-.69-2-.18-.67-.07.69.05,2,.16,7.77.66,28.88,2.46,98.2,8.45-.16.13c1.23-11.45,2.51-23.38,3.82-35.6l.14.17h-.42L307.36,282.27l.1-.09c-1.24,11.49-2.22,20.58-2.91,26.8-.34,3.11-.58,5.5-.77,7.12-.09.81-.16,1.42-.21,1.84A4.28,4.28,0,0,0,303.53,318.57Z"/><path class="cls-8" d="M316.44,291.5a9,9,0,0,1-1.94-.07,8.34,8.34,0,0,1-1.92-.29,17.06,17.06,0,0,1,3.86.36Z"/><path class="cls-8" d="M317,287.78a16.76,16.76,0,0,1-3.87-.36,9.1,9.1,0,0,1,1.95.07A8.34,8.34,0,0,1,317,287.78Z"/><path class="cls-8" d="M316,295.55a8.91,8.91,0,0,1-2-.07,8.34,8.34,0,0,1-1.92-.29,16.76,16.76,0,0,1,3.87.36Z"/><path class="cls-8" d="M315.62,299.6a9,9,0,0,1-1.94-.07,8.42,8.42,0,0,1-1.93-.29,8.49,8.49,0,0,1,1.95.07A8.34,8.34,0,0,1,315.62,299.6Z"/><path class="cls-8" d="M315.22,303.65a8.91,8.91,0,0,1-2-.07,8.34,8.34,0,0,1-1.92-.29,16.76,16.76,0,0,1,3.87.36Z"/><path class="cls-8" d="M314.81,307.7a9.1,9.1,0,0,1-1.95-.07,8.34,8.34,0,0,1-1.92-.29,16.76,16.76,0,0,1,3.87.36Z"/><path class="cls-8" d="M314.4,311.75a9.79,9.79,0,0,1-1.95-.07,8.34,8.34,0,0,1-1.92-.29,8.36,8.36,0,0,1,2,.07A8.47,8.47,0,0,1,314.4,311.75Z"/><path class="cls-8" d="M332,292.69c0,.07-2.26-.09-5-.35s-5-.52-5-.58,2.26.1,5,.36S332,292.63,332,292.69Z"/><path class="cls-8" d="M345.12,302.33c0,.05-4.22-.28-9.41-.77s-9.39-.91-9.38-1,4.22.28,9.4.75S345.12,302.26,345.12,302.33Z"/><path class="cls-8" d="M366.86,304.33c0,.07-4.21-.28-9.4-.75s-9.39-.92-9.39-1,4.22.28,9.41.77S366.86,304.28,366.86,304.33Z"/><path class="cls-8" d="M358.13,307.62c0,.06-6.21-.47-13.85-1.17s-13.84-1.33-13.83-1.39,6.21.46,13.85,1.16S358.13,307.56,358.13,307.62Z"/><path class="cls-8" d="M357.72,311.67c0,.05-6.21-.47-13.85-1.17S330,309.17,330,309.11s6.21.46,13.86,1.16S357.72,311.64,357.72,311.67Z"/><path class="cls-8" d="M368.15,316.72c0,.06-6.22-.46-13.86-1.17s-13.84-1.33-13.83-1.39,6.2.47,13.85,1.16S368.15,316.66,368.15,316.72Z"/><path class="cls-8" d="M402,319.85c0,.06-6.21-.46-13.85-1.17s-13.84-1.33-13.83-1.39,6.21.47,13.85,1.16S402,319.78,402,319.85Z"/><path class="cls-9" d="M391,310.66c0,.06-6.21-.46-13.85-1.17s-13.85-1.35-13.81-1.39,6.21.46,13.86,1.16S391,310.6,391,310.66Z"/><path class="cls-8" d="M405.92,316.13c0,.06-9.63-.79-21.52-1.88s-21.5-2-21.49-2.1,9.63.78,21.53,1.88S405.93,316.06,405.92,316.13Z"/><path class="cls-9" d="M331.54,297c0,.06-2.25-.09-5-.35s-5-.52-5-.58,2.26.1,5,.35A47.51,47.51,0,0,1,331.54,297Z"/><path class="cls-9" d="M334.86,313.64c0,.06-2.26-.1-5-.36s-5-.51-5-.58c1.67,0,3.34.16,5,.36C332.63,313.32,334.89,313.58,334.86,313.64Z"/><path class="cls-15" d="M415.35,321.08c0,.06-2.26-.09-5-.35s-5-.51-5-.58,2.26.1,5,.35A47.51,47.51,0,0,1,415.35,321.08Z"/><line class="cls-16" x1="320.69" y1="285.06" x2="316.97" y2="317.32"/><path class="cls-2" d="M317,317.32c-.09,0,.68-7.24,1.71-16.15s1.93-16.12,2-16.11S320,292.3,319,301.21,317.05,317.33,317,317.32Z"/><path class="cls-17" d="M393.4,303.62s-2.53-3.49-3.16-4.71a30.88,30.88,0,0,0-3.64-4.27s-.59.2-.51,1.22a28.33,28.33,0,0,0,1.37,2.76s.3,1.5-.37,1.58-8.73-1.17-8.73-1.17c-1.74-.26-1.74.77-1.74.77s-1.17-.23-1.39.55c-.14.5.89,1.2.89,1.2s-1.21-.46-1.68.36,1.75,1.74,1.75,1.74c0,1.3,4.27,3.15,5.39,3.69S393,310.47,393,310.47l2.53-5.68Z"/><path class="cls-18" d="M385,302.12a6.09,6.09,0,0,1-1.28-.1,22,22,0,0,1-3-.65,27,27,0,0,1-2.91-1,7.08,7.08,0,0,1-1.17-.58,7.5,7.5,0,0,1,1.21.41c.74.27,1.75.63,2.91,1a28.4,28.4,0,0,0,3,.71A8.68,8.68,0,0,1,385,302.12Z"/><path class="cls-18" d="M384.16,304.17a6.91,6.91,0,0,1-1.2-.25c-.73-.19-1.74-.45-2.83-.8a26.71,26.71,0,0,1-2.76-1,5.65,5.65,0,0,1-1.1-.55,8.07,8.07,0,0,1,1.17.4c.7.26,1.68.58,2.77.95l2.81.86A5.9,5.9,0,0,1,384.16,304.17Z"/><path class="cls-18" d="M383.05,306.17A4.11,4.11,0,0,1,382,306a15.62,15.62,0,0,1-2.5-.75,18.8,18.8,0,0,1-2.37-1.09,4.53,4.53,0,0,1-.91-.58c0-.07,1.47.73,3.36,1.45.8.31,1.61.58,2.44.81A6.18,6.18,0,0,1,383.05,306.17Z"/><path class="cls-9" d="M404,279.42c0,.58-2.52,19.26-2.52,23.08s7.3,8,7.3,8l8,17h28.47l-11-18.36-3.12-14.58c-1.67-5.54-1.5-8.41-5.63-12.47l-8-5.36Z"/><path class="cls-8" d="M409.23,311.39a6.44,6.44,0,0,0-.73-1.06c-.17-.09-.44-.22-.76-.41a22,22,0,0,1-2.64-1.75,10.79,10.79,0,0,1-3.12-3.53,10.49,10.49,0,0,1-.43-5.74c.28-2,.71-3.92.95-5.67s.46-3.32.55-4.65.12-2.41.12-3.16a7.49,7.49,0,0,1,0-1.16,1.5,1.5,0,0,1,0,.3c0,.19.05.48.07.85a27.94,27.94,0,0,1,0,3.17c-.07,1.34-.24,2.91-.49,4.66s-.64,3.66-.93,5.67a10.16,10.16,0,0,0,.39,5.57,11.06,11.06,0,0,0,3,3.49,29,29,0,0,0,2.57,1.82A6.5,6.5,0,0,1,409.23,311.39Z"/><path class="cls-9" d="M412.41,291.49l4.38,18.39-22.11-6.23-3.77,6.66,28.76,13.09a8.09,8.09,0,0,0,10-2.71h0A8.1,8.1,0,0,0,430.9,314l-6.43-25.15a6.17,6.17,0,0,0-7.5-4.43l-.42.13h0A6.14,6.14,0,0,0,412.41,291.49Z"/><path class="cls-8" d="M424.52,290.35a1.21,1.21,0,0,1,.11.32c.06.24.15.54.26.92.21.83.51,2,.89,3.38.73,2.91,1.74,6.84,2.83,11.2.54,2.2,1.07,4.28,1.52,6.19a14.59,14.59,0,0,1,.42,5.18,7.18,7.18,0,0,1-1.24,3.28,4.18,4.18,0,0,1-.88.95,10.84,10.84,0,0,0,.79-1,7.53,7.53,0,0,0,1.13-3.24,14.68,14.68,0,0,0-.48-5.11c-.47-1.9-1-4-1.53-6.17-1.08-4.37-2-8.32-2.76-11.22-.33-1.41-.58-2.57-.8-3.41-.09-.38-.15-.69-.21-.93A1.18,1.18,0,0,1,424.52,290.35Z"/><path class="cls-8" d="M417.55,284.34H417a3.14,3.14,0,0,0-.61.12,3.6,3.6,0,0,0-.77.36,8.22,8.22,0,0,0-2.91,4.53,6.85,6.85,0,0,0-.32,1.74,12.71,12.71,0,0,0,.25,1.94c.25,1.35.58,2.78.94,4.28.72,3,1.59,6.29,2.53,9.72.27,1,.52,1.88.77,2.76l.07.26-.26-.07L401,305.5l-4.65-1.36-1.25-.38a3.12,3.12,0,0,1-.43-.15,3.12,3.12,0,0,1,.44.09l1.27.33,4.69,1.28,15.71,4.38-.18.18c-.25-.88-.51-1.81-.77-2.76-.94-3.44-1.81-6.73-2.52-9.73-.36-1.51-.66-2.94-.91-4.3a12.26,12.26,0,0,1-.23-2,7.12,7.12,0,0,1,.34-1.83,7.85,7.85,0,0,1,3-4.56,3.35,3.35,0,0,1,.8-.35,4.49,4.49,0,0,1,.64-.1h.39Z"/><path class="cls-17" d="M417.69,252.73l-10-4.86c-3.63-.39-7.43,6-7.66,9.7a61,61,0,0,0,.62,12c1,6.08,5,6.29,5,6.29s.21,6.3.26,10.43L418.85,278l.75-23.11A2.13,2.13,0,0,0,417.69,252.73Z"/><path class="cls-8" d="M401.6,262a.76.76,0,0,0,.75.79h0a.73.73,0,0,0,.8-.66v0h0a.78.78,0,0,0-.75-.79.74.74,0,0,0-.8.66Z"/><path class="cls-8" d="M401.11,260.36c.09.08.7,0,1.51.19s1.38.58,1.48.54,0-.14-.28-.3a3.82,3.82,0,0,0-1.16-.49,3.58,3.58,0,0,0-1.22-.09C401.19,260.25,401.07,260.32,401.11,260.36Z"/><path class="cls-8" d="M409.41,262.28a.79.79,0,0,0,.75.79.75.75,0,0,0,.81-.69h0a.77.77,0,0,0-.75-.78.73.73,0,0,0-.8.66v0Z"/><path class="cls-8" d="M409.39,261a10.78,10.78,0,0,1,1.54-.62c.89-.23,1.6-.17,1.68-.26s-.1-.11-.42-.15a4,4,0,0,0-1.37.14,3.43,3.43,0,0,0-1.2.58C409.39,260.87,409.33,261,409.39,261Z"/><path class="cls-8" d="M406.3,266.55a5.71,5.71,0,0,0-1.37-.25c-.21,0-.41-.06-.44-.22a1,1,0,0,1,.14-.63c.2-.52.41-1.06.64-1.63a27.8,27.8,0,0,0,1.43-4.27,26,26,0,0,0-1.75,4.14l-.61,1.64a1.25,1.25,0,0,0-.12.85.56.56,0,0,0,.36.31,1.49,1.49,0,0,0,.36.05A5.63,5.63,0,0,0,406.3,266.55Z"/><path class="cls-18" d="M405.7,275.91a15.52,15.52,0,0,0,8.14-2.16s-2.06,4.29-8.14,3.7Z"/><path class="cls-18" d="M406.42,268.58a2.29,2.29,0,0,1,1.62-1.07,1,1,0,0,1,.94.53,1.51,1.51,0,0,1-.13,1.4,1.27,1.27,0,0,1-1.27.61,2.26,2.26,0,0,1-1.06-.68,1,1,0,0,1-.21-.31.51.51,0,0,1,.07-.43"/><path class="cls-8" d="M408.75,267.14c-.13,0-.14.9-.92,1.55s-1.74.54-1.74.66.21.18.62.19a2.23,2.23,0,0,0,1.47-.51,1.93,1.93,0,0,0,.71-1.29C408.93,267.36,408.83,267.13,408.75,267.14Z"/><path class="cls-8" d="M408.7,257.35c.1.21.93,0,1.92,0s1.81.21,1.92,0-.11-.3-.45-.49a3.21,3.21,0,0,0-1.46-.35,3.25,3.25,0,0,0-1.47.32C408.82,257,408.65,257.24,408.7,257.35Z"/><path class="cls-8" d="M400.86,258.51c.18.19.9,0,1.74,0s1.6.13,1.75-.08,0-.28-.36-.46a3,3,0,0,0-2.85.07C400.87,258.22,400.77,258.42,400.86,258.51Z"/><path class="cls-8" d="M428.35,280.28c-1.33-2.15-2.42-7.49-2.88-10.2s-1.89-11.4-4.2-16-5-6.4-7.7-7.12a6.08,6.08,0,0,0-4.32.31,7.73,7.73,0,0,0-6.49,2.27,12.21,12.21,0,0,0-3.31,7.29,43.76,43.76,0,0,0,.34,6.77,53,53,0,0,1,1.08-7.31,5.33,5.33,0,0,1,5.23-3.8h0s6.44,1.44,8.6,5.1a31.29,31.29,0,0,1,3.1,6.34l.8,2.32s-.75,4.47-1,6.67-.25,4.39,1.55,5.28l4.08,2.45s6,4.89,6.92,10C430.11,290.69,431.06,284.66,428.35,280.28Z"/><path class="cls-17" d="M417.73,264.29a1.85,1.85,0,0,1,1.92-1.78h0a1.79,1.79,0,0,1,.79.21,2.52,2.52,0,0,1,1.07,2.54c-.16,3.82-3.95,2.87-4,2.77S417.66,265.87,417.73,264.29Z"/><path class="cls-18" d="M418.78,266.63l.18.11a.69.69,0,0,0,.49,0,1.63,1.63,0,0,0,.82-1.45,2.43,2.43,0,0,0-.14-1,.82.82,0,0,0-.48-.53.33.33,0,0,0-.4.17c-.06.1,0,.18-.06.19s-.08-.07,0-.23a.38.38,0,0,1,.16-.23.54.54,0,0,1,.37-.08.93.93,0,0,1,.67.62,2.31,2.31,0,0,1,.19,1.07,1.77,1.77,0,0,1-1,1.61.71.71,0,0,1-.58-.13C418.78,266.72,418.76,266.64,418.78,266.63Z"/><path class="cls-2" d="M412.05,246.76a10.26,10.26,0,0,0-1.35.12,4.24,4.24,0,0,0-2.79,1.5,6.88,6.88,0,0,0-1.54,2.83c-.23.81-.25,1.34-.28,1.33a1.15,1.15,0,0,1,0-.37,4.87,4.87,0,0,1,.17-1,6.76,6.76,0,0,1,1.53-2.91,4.41,4.41,0,0,1,2.88-1.51,8.34,8.34,0,0,1,1,0A1.21,1.21,0,0,1,412.05,246.76Z"/><path class="cls-8" d="M417.44,274.29c-.65,2.77,1.45,7.16,3.45,9.19s4.39,3.79,5.64,6.35c1.44,3,1.16,6.74,3.27,9.31a2.86,2.86,0,0,0,2.06,1.2c.82,0,1.66-.71,1.51-1.52,1.8-.07,2.94-2.2,2.66-4s-1.52-3.24-2.7-4.59a2.23,2.23,0,0,0,2.73-1.6v0a3.91,3.91,0,0,0-.94-3.35,18.45,18.45,0,0,0-2.67-2.4c-4.62-3.89-6.73-10.14-7.61-16.29"/><path class="cls-8" d="M420.63,244.53a5,5,0,0,0-3.14-1.9,3.68,3.68,0,0,0-3.37,1.23c-.78,1-2.16,2.42-1.41,3.42a12,12,0,0,0,4,2.91A3.84,3.84,0,0,0,421.2,249,4,4,0,0,0,420.63,244.53Z"/><path class="cls-2" d="M419.6,251.37s-.31-.41-.85-1a10,10,0,0,0-2.44-2,17.34,17.34,0,0,0-4.24-1.53,4.33,4.33,0,0,1,1.34.13,10.33,10.33,0,0,1,3,1.16,8.7,8.7,0,0,1,2.46,2.14A3.7,3.7,0,0,1,419.6,251.37Z"/><path class="cls-2" d="M420.28,244.1a1.51,1.51,0,0,1,.14,1,3.39,3.39,0,0,1-1.07,2.08,4.67,4.67,0,0,1-2.09,1,2.18,2.18,0,0,1-.95,0,6,6,0,0,1,.91-.28,5,5,0,0,0,1.95-1.05,3.55,3.55,0,0,0,1.06-1.88C420.31,244.47,420.23,244.11,420.28,244.1Z"/><path class="cls-2" d="M420.11,246.05a7.19,7.19,0,0,1-.86-.58,7.08,7.08,0,0,0-4.67-1,8.31,8.31,0,0,1-1,.15,2.12,2.12,0,0,1,1-.36,6.1,6.1,0,0,1,4.82,1.06A2.6,2.6,0,0,1,420.11,246.05Z"/><path class="cls-2" d="M421.36,271.27a13.67,13.67,0,0,0,1.56-3.16,7.5,7.5,0,0,0,.28-3.76,5.59,5.59,0,0,0-.87-2,8.56,8.56,0,0,0-1.66-1.74,40.16,40.16,0,0,0-3.95-2.6c-1.25-.75-2.37-1.45-3.25-2.11a14.5,14.5,0,0,1-2-1.75c-.17-.17-.32-.35-.47-.53a.8.8,0,0,1-.15-.21,8.79,8.79,0,0,1,.7.66,19.49,19.49,0,0,0,2,1.63,32.45,32.45,0,0,0,3.27,2,33.81,33.81,0,0,1,4,2.6,8.39,8.39,0,0,1,1.72,1.8,5.83,5.83,0,0,1,.9,2.15,7.54,7.54,0,0,1-.34,3.88,10.18,10.18,0,0,1-1.17,2.33c-.13.2-.27.39-.42.58A.83.83,0,0,0,421.36,271.27Z"/><path class="cls-9" d="M442.36,367.31l-11-4.81-2.91,9.55,8.56,3-.09,8.21c-4.07,1.17-4.66,3.22-4.66,3.22l8.55-.19,7.43-15.13Z"/><path class="cls-8" d="M436.89,379.49c.07.09.56-.21,1.22-.2s1.16.27,1.22.18-.42-.58-1.23-.58S436.82,379.42,436.89,379.49Z"/><path class="cls-8" d="M437,377.45c.08.06.46-.45,1.16-.58s1.23.15,1.29.06-.08-.18-.32-.3a1.6,1.6,0,0,0-1.95.43A.6.6,0,0,0,437,377.45Z"/><path class="cls-8" d="M436.88,374.84c.09.05.37-.45,1-.68s1.13,0,1.17-.13-.1-.16-.34-.24a1.43,1.43,0,0,0-1,0,1.49,1.49,0,0,0-.75.63C436.84,374.66,436.83,374.82,436.88,374.84Z"/><path class="cls-8" d="M436.25,374.83c.1,0,0-.58.29-1.16s.67-.91.62-1-.66.14-1,.85S436.15,374.88,436.25,374.83Z"/><path class="cls-8" d="M435.24,373.89a3.81,3.81,0,0,0,.19-1.16l.12-1.25a2.68,2.68,0,0,0,0-.8.7.7,0,0,0-.3-.43.55.55,0,0,0-.58,0,1.48,1.48,0,0,0-.49.76,2.57,2.57,0,0,0-.15.77,2.9,2.9,0,0,0,.22,1.3c.3.69.74.95.75.91a9.33,9.33,0,0,1-.5-1,3,3,0,0,1-.13-1.16,2.19,2.19,0,0,1,.16-.67,1.31,1.31,0,0,1,.34-.58.17.17,0,0,1,.19,0,.28.28,0,0,1,.13.2,2.58,2.58,0,0,1,0,.68v1.25A3.35,3.35,0,0,0,435.24,373.89Z"/><path class="cls-8" d="M435.1,374.25a1.42,1.42,0,0,0-.88-.61,2.12,2.12,0,0,0-2.42.86.38.38,0,0,0,0,.33.46.46,0,0,0,.23.18,1.3,1.3,0,0,0,.39.09,4.09,4.09,0,0,0,.7,0,3.71,3.71,0,0,0,1.13-.3c.61-.26.9-.58.87-.61s-.37.18-1,.36a3.82,3.82,0,0,1-1.06.2h-.63a1.59,1.59,0,0,1-.3-.06c-.07,0-.05,0-.05-.06a.82.82,0,0,1,.17-.2,2.43,2.43,0,0,1,.25-.2,2.31,2.31,0,0,1,.55-.26,2,2,0,0,1,1-.06A6.43,6.43,0,0,1,435.1,374.25Z"/><path class="cls-9" d="M384.66,368.61l.12,11.19s-11.33,3.87-11.51,5.94l21.7.56.53-17.46Z"/><path class="cls-8" d="M384.43,379.71c0,.1.53.17,1,.52s.78.81.88.77,0-.66-.67-1.08S384.41,379.58,384.43,379.71Z"/><path class="cls-8" d="M382.13,380.56c0,.1.43.3.78.76s.44.93.54.93.2-.59-.25-1.17S382.14,380.46,382.13,380.56Z"/><path class="cls-8" d="M380.77,383.25c.09,0,.26-.5,0-1.09s-.75-.83-.8-.74.26.41.46.89S380.67,383.24,380.77,383.25Z"/><path class="cls-8" d="M384.69,377.13c0,.1.53,0,1.13,0s1.06.25,1.12.16-.39-.48-1.09-.54S384.64,377,384.69,377.13Z"/><path class="cls-8" d="M384.71,374.87a2,2,0,0,0,1.08,0,4.79,4.79,0,0,0,1.8-.64.94.94,0,0,0,.34-.25.47.47,0,0,0,.06-.58.61.61,0,0,0-.46-.25,1.41,1.41,0,0,0-.41,0,4.15,4.15,0,0,0-.68.22,3.26,3.26,0,0,0-1,.63c-.51.45-.7.84-.66.86s.3-.29.82-.65a4.17,4.17,0,0,1,1-.53,4.37,4.37,0,0,1,.62-.17c.24-.06.43-.05.49.05s0,0,0,.12a1.14,1.14,0,0,1-.25.18,4,4,0,0,1-.58.31,5.57,5.57,0,0,1-1.06.38A8.31,8.31,0,0,0,384.71,374.87Z"/><path class="cls-8" d="M384.84,375.05a1.77,1.77,0,0,0,.31-1,3.42,3.42,0,0,0-.11-1.19,4.22,4.22,0,0,0-.26-.67.91.91,0,0,0-.68-.58.52.52,0,0,0-.47.29,1.82,1.82,0,0,0-.11.4,2.18,2.18,0,0,0,0,.72,2.6,2.6,0,0,0,.43,1.14c.41.58.85.71.86.68a5.65,5.65,0,0,1-.64-.82,2.73,2.73,0,0,1-.32-1,2.15,2.15,0,0,1,0-.62c0-.24.12-.42.21-.39a.76.76,0,0,1,.37.36,3,3,0,0,1,.25.58,3.79,3.79,0,0,1,.19,1.1C384.9,374.61,384.79,375,384.84,375.05Z"/><polygon class="cls-4" points="435.11 362.91 410.12 353.62 436.39 349.93 437.71 337.14 388.59 341.42 381.65 351.41 383.48 363.94 431.34 376.11 435.11 362.91"/><path class="cls-4" d="M382.13,371.87l-2.39-45.74a12.81,12.81,0,0,1,6.4-10.75h0a12.83,12.83,0,0,1,10.51-1.07l31.88,10.63,15.6,2.48s4.87,9.36,3.12,15.07-7.84,9.31-13.23,7.71c-6.7-2-37.43-15.2-37.43-15.2v37.24Z"/><path class="cls-2" d="M433.56,350.32a.6.6,0,0,1-.19-.06l-.55-.21-2.09-.83-7.67-3.13-25.24-10.42-1.29-.53.21-.14v26.39c0,3.34,0,6.05-.05,7.94v2.74a.61.61,0,0,1,0,.19.61.61,0,0,1,0-.19V334.78l.21.08,1.29.54,25.21,10.47,7.63,3.21,2.07.89.53.24Z"/><path class="cls-2" d="M404.13,350.37a10.58,10.58,0,0,1,6,3.32c-.06.07-1.2-1-2.85-1.9S404.1,350.47,404.13,350.37Z"/><path class="cls-2" d="M393.82,328.81a22.48,22.48,0,0,1,2.85,6.41c-.08,0-.67-1.43-1.46-3.19A31.57,31.57,0,0,1,393.82,328.81Z"/></g><g id="freepik--Floor--inject-40"><path class="cls-8" d="M542.37,386.26c0,.09-79.37.15-177.25.15s-177.26-.06-177.26-.15,79.35-.15,177.25-.15S542.37,386.18,542.37,386.26Z"/></g><g id="freepik--character-1--inject-40"><polygon class="cls-4" points="276.91 209.61 384.81 195.47 380.7 160.9 272.85 175.17 276.91 209.61"/><path class="cls-13" d="M283,182a15.14,15.14,0,0,1-3.54.46,7.53,7.53,0,0,1,1.75-.34A7.67,7.67,0,0,1,283,182Z"/><path class="cls-13" d="M282.62,178.39a7.33,7.33,0,0,1-1.74.33,7.59,7.59,0,0,1-1.78.12,7.33,7.33,0,0,1,1.74-.33A7.59,7.59,0,0,1,282.62,178.39Z"/><path class="cls-13" d="M283.46,185.8a7.51,7.51,0,0,1-1.75.33,7.67,7.67,0,0,1-1.79.12,7.51,7.51,0,0,1,1.75-.33A7.67,7.67,0,0,1,283.46,185.8Z"/><path class="cls-13" d="M284,189.6a7.51,7.51,0,0,1-1.75.33,7.59,7.59,0,0,1-1.78.12,15.13,15.13,0,0,1,3.54-.45Z"/><path class="cls-13" d="M284.45,193.43a8,8,0,0,1-1.75.32,7.59,7.59,0,0,1-1.78.12,14.61,14.61,0,0,1,3.54-.44Z"/><path class="cls-13" d="M285,197.25a8,8,0,0,1-1.75.32,7.09,7.09,0,0,1-1.78.13,8,8,0,0,1,1.74-.34A8.25,8.25,0,0,1,285,197.25Z"/><path class="cls-13" d="M285.45,201.07a7.33,7.33,0,0,1-1.74.33,7.75,7.75,0,0,1-1.8.11,7.51,7.51,0,0,1,1.75-.33A7.66,7.66,0,0,1,285.45,201.07Z"/><path class="cls-9" d="M297.12,179.92c0,.06-2.05.37-4.58.69s-4.6.54-4.61.48a45.73,45.73,0,0,1,4.58-.69C295.09,180.08,297.11,179.86,297.12,179.92Z"/><path class="cls-9" d="M310.94,186.16c0,.06-3.83.59-8.58,1.2s-8.61,1-8.61,1,3.83-.58,8.59-1.2S310.93,186.11,310.94,186.16Z"/><path class="cls-13" d="M330.83,183.63c0,.06-3.84.58-8.59,1.2s-8.6,1-8.61,1,3.83-.58,8.59-1.2S330.82,183.58,330.83,183.63Z"/><path class="cls-13" d="M323.72,188.42c0,.06-5.65.83-12.65,1.75s-12.68,1.56-12.69,1.51,5.67-.83,12.67-1.75S323.72,188.36,323.72,188.42Z"/><path class="cls-13" d="M324.22,192.24c0,.06-5.65.83-12.65,1.72s-12.68,1.57-12.68,1.51,5.65-.82,12.65-1.74S324.22,192.2,324.22,192.24Z"/><path class="cls-13" d="M334.64,194.8c0,.06-5.66.83-12.66,1.75s-12.67,1.57-12.68,1.51,5.66-.82,12.65-1.71S334.63,194.75,334.64,194.8Z"/><path class="cls-13" d="M365.6,190.86c0,.06-5.65.83-12.65,1.75s-12.68,1.56-12.69,1.5,5.67-.82,12.66-1.71S365.6,190.81,365.6,190.86Z"/><path class="cls-7" d="M353.84,184.59c0,.06-5.66.82-12.66,1.74s-12.67,1.57-12.68,1.51,5.66-.83,12.65-1.75S353.83,184.53,353.84,184.59Z"/><path class="cls-2" d="M368.34,186.62c0,.06-8.79,1.23-19.66,2.62S329,191.69,329,191.64s8.8-1.23,19.67-2.61S368.34,186.57,368.34,186.62Z"/><path class="cls-7" d="M297.62,184c0,.05-2,.37-4.58.69s-4.6.54-4.61.48,2.05-.37,4.58-.69A40.74,40.74,0,0,1,297.62,184Z"/><path class="cls-7" d="M304.2,198.68c0,.06-2.05.37-4.59.69s-4.59.54-4.61.48,2.05-.36,4.59-.69S304.19,198.63,304.2,198.68Z"/><path class="cls-9" d="M377.85,188.29c0,.06-2.05.37-4.58.69s-4.61.54-4.61.48,2-.36,4.58-.69S377.84,188.25,377.85,188.29Z"/><path class="cls-2" d="M288.94,205.7c-.08,0-.95-6.82-1.93-15.26s-1.72-15.28-1.63-15.3.95,6.83,1.93,15.27S289,205.69,288.94,205.7Z"/><path class="cls-19" d="M280.26,209.12l-3.4.49-.4-4.62-.59-4.08-.76-6.56-2.44,3.58a3.2,3.2,0,0,0-.51,1.49l-.35,12.5-.06,5.34,6.06,3.8-.13-6.36,1.41-1.5A6.14,6.14,0,0,0,280.26,209.12Z"/><path class="cls-19" d="M272.85,205.05a25.92,25.92,0,0,1,2.73-3.92,3.72,3.72,0,0,1,1.16-1,1.37,1.37,0,0,1,1.47.11,1.44,1.44,0,0,1,.24,1.64,5.22,5.22,0,0,1-1.06,1.41,3,3,0,0,0-.82,1.54,4.74,4.74,0,0,0,.29,1.63,5.37,5.37,0,0,1-1.39,5"/><path class="cls-20" d="M275.47,211.46a5.84,5.84,0,0,0,.47-.64,5.37,5.37,0,0,0,.84-2,5.58,5.58,0,0,0,.11-1.47,7.94,7.94,0,0,0-.36-1.66,2.59,2.59,0,0,1-.1-1,2.38,2.38,0,0,1,.37-1c.38-.58.92-1,1.3-1.58a1.92,1.92,0,0,0,.35-.89,1.25,1.25,0,0,0-.21-.86,1.21,1.21,0,0,0-1.55-.16,4.6,4.6,0,0,0-1.21,1.16c-.35.41-.65.8-.93,1.16-.55.74-1,1.35-1.25,1.78a3.84,3.84,0,0,1-.45.66,4,4,0,0,1,.35-.72c.36-.63.75-1.25,1.17-1.84.26-.38.58-.78.9-1.21a5.12,5.12,0,0,1,1.27-1.23,1.83,1.83,0,0,1,1-.24,1.25,1.25,0,0,1,1,.47,1.84,1.84,0,0,1-.14,2.1c-.41.58-.94,1-1.29,1.58a2,2,0,0,0-.33.84,2.27,2.27,0,0,0,.08.86,7.51,7.51,0,0,1,.33,1.75,4.88,4.88,0,0,1-.15,1.52,5.26,5.26,0,0,1-.94,2,4.27,4.27,0,0,1-.41.44A.31.31,0,0,0,275.47,211.46Z"/><path class="cls-15" d="M253.49,364.51l-2.28,12.22s11.64,6.4,11.44,8.73l-23.86-3.58,2.8-19.21Z"/><path class="cls-9" d="M253.49,364.51l-2.28,12.22s11.64,6.4,11.44,8.73l-23.86-3.58,2.8-19.21Z"/><path class="cls-13" d="M244,374.58a1.15,1.15,0,1,1-.1,0"/><path class="cls-8" d="M251.61,376.64c0,.11-.58.08-1.24.37s-1,.73-1.1.67.17-.71.94-1.05S251.66,376.56,251.61,376.64Z"/><path class="cls-8" d="M254,378.07c0,.11-.53.24-1,.67s-.66.94-.77.92-.1-.7.5-1.23A1.26,1.26,0,0,1,254,378.07Z"/><path class="cls-8" d="M254.93,381.29c-.11,0-.19-.58.21-1.16s1-.77,1-.67-.35.4-.67.89S255,381.29,254.93,381.29Z"/><path class="cls-8" d="M251.82,373.82c-.06.1-.58-.14-1.24-.2s-1.2.08-1.25,0,.51-.45,1.29-.37S251.9,373.73,251.82,373.82Z"/><path class="cls-9" d="M245.71,367.43l-.22,12.42s12.57,4.4,12.73,6.68l-24.1.44-.45-19.37Z"/><path class="cls-8" d="M245.87,379.73c0,.11-.58.18-1.16.58s-.87.88-1,.84,0-.73.75-1.16S245.9,379.62,245.87,379.73Z"/><path class="cls-8" d="M248.42,380.71c0,.12-.47.33-.86.83s-.5,1-.62,1-.2-.67.3-1.28S248.42,380.61,248.42,380.71Z"/><path class="cls-8" d="M249.91,383.72c-.1,0-.28-.58,0-1.21s.83-.91.89-.82-.28.45-.51,1S250,383.71,249.91,383.72Z"/><path class="cls-8" d="M245.61,376.89c0,.11-.58-.05-1.25,0s-1.17.28-1.24.18.42-.53,1.21-.58S245.67,376.79,245.61,376.89Z"/><path class="cls-4" d="M228.71,271l.32,12.28,3.63,38.15s-1.16,18.59-1.9,29.09c-.63,9.12,1.21,24.91,1.21,24.91l15.34-.4,4.11-52.95,2.57-33,5.17-17.25Z"/><path class="cls-4" d="M266.61,273.79l1,49.9a21.14,21.14,0,0,1-1.22,7.47l-13.18,36.69-.65,2.42-9.22-2,4.47-97.3Z"/><path class="cls-2" d="M253.76,282.61v3.64c0,2.33-.07,5.74-.18,9.94-.25,8.38-.81,20-1.82,32.72s-2.15,24.28-3,32.6c-.44,4.15-.79,7.52-1,9.89l-.3,2.68a4.87,4.87,0,0,1-.08.7.89.89,0,0,1,0,.23,1,1,0,0,1,0-.24v-.69l.25-2.69c.22-2.33.54-5.73.94-9.89.8-8.34,1.93-19.87,2.91-32.62s1.6-24.32,1.9-32.7c.14-4.19.23-7.57.27-9.93,0-1.16,0-2.07.06-2.7v-.7A2,2,0,0,1,253.76,282.61Z"/><path class="cls-2" d="M240.37,274.15a1.63,1.63,0,0,1-.05.58,7.88,7.88,0,0,1-.39,1.5,9.8,9.8,0,0,1-7.47,6.31,8,8,0,0,1-1.54.15,1.94,1.94,0,0,1-.59-.05,18.08,18.08,0,0,0,2.07-.29,10.23,10.23,0,0,0,7.33-6.21C240.22,274.94,240.32,274.14,240.37,274.15Z"/><path class="cls-2" d="M254.57,276.1a.8.8,0,0,1-.77.82.79.79,0,0,1-.81-.77h0a.78.78,0,0,1,.75-.81h0a.78.78,0,0,1,.81.75h0Z"/><path class="cls-2" d="M267,282a4.6,4.6,0,0,1-1.11-1,12.1,12.1,0,0,1-3.06-6.4,4.61,4.61,0,0,1-.08-1.48c.05,0,.09.58.27,1.45a14,14,0,0,0,3,6.29C266.63,281.58,267,282,267,282Z"/><path class="cls-9" d="M256.58,210.82s4.34,3.35,6,7.15a82,82,0,0,0,5.07,9l3.1-11.21,8.4,4s-2.58,17.56-3.2,19.62c-.85,2.85-2.9,5.4-6.1,5.1s-5.1-1.75-7.2-4.76l-2.84-5.13Z"/><path class="cls-9" d="M235.69,203.5s-12,5.94-14.55,9.45c-3,4.26,5.4,17.89,6,21.26.3,1.63,2.32,13.83,1.37,23.45a164.93,164.93,0,0,0-.72,19.25l38.76-3.12c0-6.76-1.75-12-2.91-20.56l-2.91-28-4.19-14.41-6-2.53Z"/><path class="cls-8" d="M260.08,220.5a1.63,1.63,0,0,1,.07.3,7.92,7.92,0,0,0,.13.86c.11.73.26,1.82.44,3.15.35,2.66.79,6.35,1.22,10.43s.76,7.77,1,10.47c.11,1.34.18,2.42.23,3.18v.86a1.5,1.5,0,0,1,0,.3,1,1,0,0,1-.05-.3c0-.23-.07-.51-.1-.86l-.32-3.16c-.27-2.72-.64-6.4-1.06-10.45s-.83-7.72-1.16-10.43c-.14-1.3-.25-2.37-.34-3.16a8.42,8.42,0,0,0-.08-.87A1.15,1.15,0,0,1,260.08,220.5Z"/><path class="cls-12" d="M253.81,232.1a2.75,2.75,0,0,1,.22-.26l.64-.64c.58-.54,1.31-1.28,2.16-2.1h0v.11c-.86-.79-1.63-1.51-2.18-2.05l-.62-.63c-.15-.16-.24-.24-.22-.25a1.71,1.71,0,0,1,.26.21l.68.58c.58.51,1.35,1.22,2.2,2H257l-.06.06h0c-.85.81-1.63,1.54-2.19,2.06l-.68.61A1.93,1.93,0,0,1,253.81,232.1Z"/><path class="cls-12" d="M247.19,226.26a2.62,2.62,0,0,1-.22.25l-.65.65c-.54.54-1.31,1.29-2.16,2.09h0v-.1c.85.79,1.62,1.52,2.17,2l.65.63a2.73,2.73,0,0,1,.23.25l-.26-.2-.69-.58-2.21-2-.05-.05.05,0h0c.86-.81,1.63-1.54,2.2-2.06l.68-.61A1.78,1.78,0,0,1,247.19,226.26Z"/><path class="cls-12" d="M248.89,233.47s.65-2,1.55-4.36,1.65-4.32,1.69-4.3-.66,2-1.55,4.36S248.92,233.51,248.89,233.47Z"/><path class="cls-8" d="M230.89,223.35c-.06,0,0-.8-.27-2a10.07,10.07,0,0,0-6.05-7.38,20.51,20.51,0,0,0-2-.67,1.94,1.94,0,0,1,.59,0,8.56,8.56,0,0,1,1.48.41,9.89,9.89,0,0,1,4.07,3,9.71,9.71,0,0,1,2.08,4.63,7.89,7.89,0,0,1,.12,1.53A2.57,2.57,0,0,1,230.89,223.35Z"/><path class="cls-8" d="M257,255.93a3.17,3.17,0,0,1-.75-.12,15.39,15.39,0,0,1-2-.5,23.73,23.73,0,0,1-2.91-1.09,26.13,26.13,0,0,1-3.32-1.83,25.08,25.08,0,0,1-3-2.33,22.64,22.64,0,0,1-2.16-2.22,20.25,20.25,0,0,1-1.27-1.66,3.34,3.34,0,0,1-.4-.65c.05,0,.66.87,1.83,2.16a27.77,27.77,0,0,0,2.18,2.16,30.36,30.36,0,0,0,3,2.28,27.57,27.57,0,0,0,3.2,1.87,24.22,24.22,0,0,0,2.84,1.17C255.91,255.66,257,255.87,257,255.93Z"/><path class="cls-19" d="M230.48,279.55l.3,3.39a18.85,18.85,0,0,1,3.52,2.33,56.53,56.53,0,0,1,3.66,6,1.44,1.44,0,0,1-1.82.13,21.09,21.09,0,0,1-1.92-2.68h0a1.46,1.46,0,0,0-1.71,1.15,2,2,0,0,0,0,.6c.35,1.51.75,3.27.76,3.49a20.19,20.19,0,0,0,2.66,2.73,1,1,0,0,1-.82,1.67.51.51,0,0,1-.23-.12s.13,1.61-2.08.33c0,0-2,.47-2.91-.64a9.41,9.41,0,0,1-3.27-1c-.86-.7-2.78-8-2.78-8l-1.13-7.78Z"/><path class="cls-20" d="M230.28,291.27a4.94,4.94,0,0,0,0,1.33,7,7,0,0,0,1,3.06,6.15,6.15,0,0,0,2.46,2,4.43,4.43,0,0,0,1.22.48,6,6,0,0,0-1.1-.7,7,7,0,0,1-2.29-2,7.53,7.53,0,0,1-1-2.91A6.06,6.06,0,0,0,230.28,291.27Z"/><path class="cls-20" d="M228.62,292.16a2.79,2.79,0,0,0,0,1.22,11.3,11.3,0,0,0,.25,1.29,4,4,0,0,0,.7,1.48,6.44,6.44,0,0,0,1.21,1.06l1,.74a4.29,4.29,0,0,0,1,.62,7.67,7.67,0,0,0-.87-.82c-.28-.23-.61-.51-1-.8a7.38,7.38,0,0,1-1.16-1,4.07,4.07,0,0,1-.65-1.36,10.75,10.75,0,0,1-.32-1.24A9.45,9.45,0,0,0,228.62,292.16Z"/><path class="cls-20" d="M226.79,293.34a9.16,9.16,0,0,0,.71,2.87,1.28,1.28,0,0,0,.37.55,3.7,3.7,0,0,0,.42.37,5.13,5.13,0,0,0,.79.52c.48.25.82.31.84.27a5.53,5.53,0,0,0-.71-.48c-.25-.17-.49-.36-.72-.55s-.26-.24-.38-.37a1,1,0,0,1-.29-.42c-.26-.78-.51-1.47-.7-2A3.64,3.64,0,0,0,226.79,293.34Z"/><path class="cls-9" d="M221.16,213s-4.65,5.82-4.7,10.54-1,35.31-1,35.31L222,284.28l10.42-2.63-3.7-26.85.36-23.32Z"/><path class="cls-8" d="M222,284.28l.18-.06.54-.15,2.06-.58,7.61-2-.08.13c-.78-5.37-1.83-12.5-3-20.3-.27-1.85-.53-3.66-.78-5.41h0c.13-7.32.24-13.76.33-18.4,0-2.29.09-4.13.12-5.42v-2a.29.29,0,0,1,0,.13v7.26c0,4.66-.13,11.06-.22,18.41h0l.78,5.41c1.11,7.8,2.12,14.93,2.91,20.3v.1h-.1l-7.63,1.88-2.09.5-.54.11Z"/><path class="cls-8" d="M260.55,180.26c-.58-1.3-2.13-2.26-2.23-2.68-.28-1.08.66-2.25.31-3.32-.82-2.5-2.85-2.16-2.85-2.16a8.14,8.14,0,0,0-4.21-3.13c-2.21-.59-5.46-1-7.42.16s-3.41,1.92-4,4.11L254,197.68a6.71,6.71,0,0,0,3.17-4c.58-1.65.86-3.41,1.51-5,.49-1.22-.05-3.15,1-3.87C261.1,183.85,261.08,181.46,260.55,180.26Z"/><path class="cls-19" d="M256,182.46a10.71,10.71,0,0,0-10.51-10h-.58c-6,.25-9.13,5.47-8.73,11.45l-.52,19.63,10.16,6.8c3.42,2.58,4.79.54,4.79-2h0V202.7s5.76-.8,5.93-6.55C256.64,193.36,256.35,187.65,256,182.46Z"/><path class="cls-8" d="M254.76,186.92a.82.82,0,0,1-.8.81.79.79,0,0,1-.84-.74h0a.82.82,0,0,1,.81-.81.77.77,0,0,1,.83.71h0Z"/><path class="cls-8" d="M254.83,185.55c-.11.11-.72-.36-1.61-.37s-1.53.41-1.63.3.06-.23.35-.44a2.35,2.35,0,0,1,1.31-.38,2.17,2.17,0,0,1,1.27.44C254.79,185.31,254.88,185.51,254.83,185.55Z"/><path class="cls-8" d="M246.29,187.23a.82.82,0,0,1-.8.81.79.79,0,0,1-.84-.74h0a.85.85,0,0,1,.81-.82.78.78,0,0,1,.83.73h0Z"/><path class="cls-8" d="M246.27,185.68c-.1.11-.73-.34-1.61-.33s-1.53.45-1.62.35.05-.25.33-.45a2.24,2.24,0,0,1,1.3-.42,2.29,2.29,0,0,1,1.29.4C246.22,185.44,246.32,185.64,246.27,185.68Z"/><path class="cls-8" d="M249.14,191.88a5.85,5.85,0,0,1,1.44-.23c.23,0,.44-.06.48-.22a1.11,1.11,0,0,0-.13-.67c-.21-.55-.42-1.13-.64-1.74a28.88,28.88,0,0,1-1.42-4.52,31.51,31.51,0,0,1,1.78,4.39c.21.59.41,1.17.61,1.75a1.37,1.37,0,0,1,.1.89.61.61,0,0,1-.38.32,1.58,1.58,0,0,1-.38.05A5.94,5.94,0,0,1,249.14,191.88Z"/><path class="cls-8" d="M246.28,182.57c-.13.23-1,0-2,0s-1.91.16-2-.07.13-.32.5-.5a3.47,3.47,0,0,1,3.08.07C246.16,182.25,246.33,182.47,246.28,182.57Z"/><path class="cls-8" d="M254.9,182.6c-.18.2-.86,0-1.69,0s-1.53.1-1.69-.11,0-.3.35-.49a2.54,2.54,0,0,1,1.38-.3,2.51,2.51,0,0,1,1.35.43C254.89,182.31,255,182.5,254.9,182.6Z"/><path class="cls-8" d="M240.54,172.83a4.35,4.35,0,0,0,4.33,4.37h0a4.43,4.43,0,0,0,.81-.07c1-.18,2-.67,2.88-.15s.92,1.88,1.7,2.56c1.12,1,2.91.06,4.33.48,1.1.33,1.79,1.38,2.52,2.26s1.83,1.75,2.91,1.4a13,13,0,0,0-.44-2.91,4.28,4.28,0,0,0-1.67-2.39,15.06,15.06,0,0,1-1.4-.82c-.91-.74-1.13-2-1.69-3.05a4.78,4.78,0,0,0-3.64-2.41c-1.25-.13-2.54.25-3.76-.06-.9-.23-1.69-.82-2.6-1-1.78-.34-3.44.94-4.73,2.22"/><path class="cls-8" d="M246.24,175.36c-.8-.23-2.44-.74-2.87-1.44a4.86,4.86,0,0,0-4.24-2.43,4,4,0,0,0-3.62,3.18,5.76,5.76,0,0,0-5,3.2,6.72,6.72,0,0,0,.18,6.24,3.25,3.25,0,0,1,.65,1.54,3.67,3.67,0,0,1-.88,1.85,6,6,0,0,0-.15,5.54c.78,1.74,1.33,2.32,2.44,2.7,2.17.68,2.46,3.71,3.3,4.54l1-12.44a1.4,1.4,0,0,0,.34.13c2.14.48,2.42-3.7,1.94-4.89a12.44,12.44,0,0,0,2.15-2.26,9,9,0,0,0,1-4.32C243.3,176.55,246.58,175.46,246.24,175.36Z"/><path class="cls-19" d="M237.42,187.93c-.1-.05-3.93-1.24-3.87,2.7s4,3.06,4,3S237.42,187.93,237.42,187.93Z"/><path class="cls-20" d="M236.32,192.11l-.18.09a.65.65,0,0,1-.51,0,1.71,1.71,0,0,1-.81-1.51,2.14,2.14,0,0,1,.18-1,.81.81,0,0,1,.51-.54.35.35,0,0,1,.4.19c.06.1,0,.19.06.19s.08-.07,0-.23a.38.38,0,0,0-.15-.24.52.52,0,0,0-.38-.1,1,1,0,0,0-.71.62,2.31,2.31,0,0,0-.22,1.1,1.74,1.74,0,0,0,1,1.68.74.74,0,0,0,.63-.11C236.32,192.2,236.34,192.11,236.32,192.11Z"/><path class="cls-20" d="M250.63,202.7s-5.24-.8-8.29-3.13c0,0,1.61,4.79,8.28,4.93Z"/><path class="cls-8" d="M246.86,192.43c.14,0,.13,1,.95,1.67s1.85.62,1.86.75-.23.19-.67.19a2.43,2.43,0,0,1-1.56-.58,2.08,2.08,0,0,1-.73-1.4C246.68,192.66,246.79,192.42,246.86,192.43Z"/></g><rect class="cls-4" x="355.82" y="60.9" width="101.56" height="59.17"/><path class="cls-4" d="M457.73,120.43H355.47V60.55H457.73Z"/><path class="cls-21" d="M363.76,117.1c-.05,0-.09-12.1-.09-27s0-27,.09-27,.1,12.1.1,27S363.82,117.1,363.76,117.1Z"/><path class="cls-21" d="M361.67,65.33a14.52,14.52,0,0,1-3.36,0A14.52,14.52,0,0,1,361.67,65.33Z"/><path class="cls-21" d="M361.67,68.89a14.52,14.52,0,0,1-3.36,0A14.52,14.52,0,0,1,361.67,68.89Z"/><path class="cls-21" d="M361.67,72.45a14.52,14.52,0,0,1-3.36,0A15.73,15.73,0,0,1,361.67,72.45Z"/><path class="cls-21" d="M361.67,76a14.52,14.52,0,0,1-3.36,0A15.73,15.73,0,0,1,361.67,76Z"/><path class="cls-21" d="M361.67,79.58a15.73,15.73,0,0,1-3.36,0A14.52,14.52,0,0,1,361.67,79.58Z"/><path class="cls-21" d="M361.67,83.14a15.72,15.72,0,0,1-3.36,0A14.52,14.52,0,0,1,361.67,83.14Z"/><path class="cls-21" d="M361.67,86.7a14.52,14.52,0,0,1-3.36,0A14.52,14.52,0,0,1,361.67,86.7Z"/><path class="cls-21" d="M361.67,90.26a14.52,14.52,0,0,1-3.36,0A14.52,14.52,0,0,1,361.67,90.26Z"/><path class="cls-21" d="M361.67,93.82a14.52,14.52,0,0,1-3.36,0A14.52,14.52,0,0,1,361.67,93.82Z"/><path class="cls-21" d="M361.67,97.38a14.52,14.52,0,0,1-3.36,0A15.73,15.73,0,0,1,361.67,97.38Z"/><path class="cls-21" d="M361.67,100.94a14.52,14.52,0,0,1-3.36,0A15.73,15.73,0,0,1,361.67,100.94Z"/><path class="cls-21" d="M361.67,104.51a15.73,15.73,0,0,1-3.36,0A14.52,14.52,0,0,1,361.67,104.51Z"/><path class="cls-21" d="M361.67,108.07a14.52,14.52,0,0,1-3.36,0A14.52,14.52,0,0,1,361.67,108.07Z"/><path class="cls-21" d="M361.67,111.63a14.52,14.52,0,0,1-3.36,0A14.52,14.52,0,0,1,361.67,111.63Z"/><path class="cls-21" d="M361.67,115.19a14.52,14.52,0,0,1-3.36,0A14.52,14.52,0,0,1,361.67,115.19Z"/><path class="cls-21" d="M375.16,65.12s-2,.1-4.37.1a34.32,34.32,0,0,1-4.36-.1,33.88,33.88,0,0,1,4.36-.1C373.2,65,375.16,65.07,375.16,65.12Z"/><path class="cls-21" d="M375.16,115.19s-2,.1-4.37.1-4.36-.05-4.36-.1,1.95-.1,4.36-.1S375.16,115.14,375.16,115.19Z"/><path class="cls-21" d="M387.31,72.45c0,.06-3.65.1-8.16.1s-8.17,0-8.17-.1,3.66-.09,8.17-.09S387.31,72.4,387.31,72.45Z"/><path class="cls-21" d="M406.2,72.45c0,.06-3.66.1-8.17.1s-8.17,0-8.17-.1,3.66-.09,8.17-.09S406.2,72.4,406.2,72.45Z"/><path class="cls-21" d="M399,76c0,.06-5.39.1-12,.1s-12,0-12-.1,5.39-.09,12-.09S399,76,399,76Z"/><path class="cls-21" d="M399,79.58s-5.39.09-12,.09-12,0-12-.09,5.39-.1,12-.1S399,79.52,399,79.58Z"/><path class="cls-21" d="M415.55,90.26s-5.39.1-12,.1-12,0-12-.1,5.38-.1,12-.1S415.55,90.21,415.55,90.26Z"/><path class="cls-21" d="M408.4,83.14s-5.39.09-12,.09-12,0-12-.09,5.39-.1,12-.1S408.4,83.08,408.4,83.14Z"/><path class="cls-21" d="M437.81,83.14s-5.39.09-12,.09-12,0-12-.09,5.39-.1,12-.1S437.81,83.08,437.81,83.14Z"/><path class="cls-21" d="M427.58,76c0,.06-5.39.1-12,.1s-12,0-12-.1,5.39-.09,12-.09S427.58,76,427.58,76Z"/><path class="cls-21" d="M444.2,90.26s-5.38.1-12,.1-12,0-12-.1,5.38-.1,12-.1S444.2,90.21,444.2,90.26Z"/><path class="cls-21" d="M440.88,79.58s-8.36.09-18.68.09-18.69,0-18.69-.09,8.37-.1,18.69-.1S440.88,79.52,440.88,79.58Z"/><path class="cls-21" d="M375.16,68.89s-2,.1-4.37.1a34.32,34.32,0,0,1-4.36-.1,33.88,33.88,0,0,1,4.36-.1C373.2,68.79,375.16,68.84,375.16,68.89Z"/><path class="cls-21" d="M375.16,111.63c0,.05-2,.1-4.37.1a34.32,34.32,0,0,1-4.36-.1,33.88,33.88,0,0,1,4.36-.1C373.2,111.53,375.16,111.58,375.16,111.63Z"/><path class="cls-21" d="M379.48,83.14s-2,.09-4.36.09a38.47,38.47,0,0,1-4.37-.09,36.32,36.32,0,0,1,4.37-.1C377.54,83,379.48,83.08,379.48,83.14Z"/><path class="cls-21" d="M449.44,83.14s-2,.09-4.37.09a38.11,38.11,0,0,1-4.36-.09,36.81,36.81,0,0,1,4.36-.1C447.43,83,449.44,83.08,449.44,83.14Z"/><path class="cls-21" d="M387.31,97.36c0,.06-3.65.1-8.16.1s-8.17,0-8.17-.1,3.66-.09,8.17-.09S387.31,97.31,387.31,97.36Z"/><path class="cls-21" d="M406.2,97.36c0,.06-3.66.1-8.17.1s-8.17,0-8.17-.1,3.66-.09,8.17-.09S406.2,97.31,406.2,97.36Z"/><path class="cls-21" d="M399,100.92c0,.06-5.39.1-12,.1s-12,0-12-.1,5.39-.09,12-.09S399,100.87,399,100.92Z"/><path class="cls-21" d="M399,104.49c0,.05-5.39.09-12,.09s-12,0-12-.09,5.39-.1,12-.1S399,104.43,399,104.49Z"/><path class="cls-21" d="M408.4,108.05s-5.39.09-12,.09-12,0-12-.09,5.39-.1,12-.1S408.4,108,408.4,108.05Z"/><path class="cls-21" d="M437.81,108.05s-5.39.09-12,.09-12,0-12-.09,5.39-.1,12-.1S437.81,108,437.81,108.05Z"/><path class="cls-21" d="M427.58,100.92c0,.06-5.39.1-12,.1s-12,0-12-.1,5.39-.09,12-.09S427.58,100.87,427.58,100.92Z"/><path class="cls-21" d="M440.88,104.49c0,.05-8.36.09-18.68.09s-18.69,0-18.69-.09,8.37-.1,18.69-.1S440.88,104.43,440.88,104.49Z"/><path class="cls-21" d="M379.48,108.05s-2,.09-4.36.09a38.47,38.47,0,0,1-4.37-.09,36.32,36.32,0,0,1,4.37-.1C377.54,108,379.48,108,379.48,108.05Z"/><path class="cls-21" d="M449.44,108.05s-2,.09-4.37.09a38.11,38.11,0,0,1-4.36-.09,36.81,36.81,0,0,1,4.36-.1C447.43,108,449.44,108,449.44,108.05Z"/><rect class="cls-4" x="160.86" y="114.48" width="34.53" height="24.62"/><path class="cls-12" d="M195.67,118.13c0,.06-7.8.11-17.41.11s-17.41,0-17.41-.11,7.79-.11,17.41-.11S195.67,118.07,195.67,118.13Z"/><path class="cls-12" d="M163.68,116.33a.46.46,0,0,1-.39.53.47.47,0,0,1-.54-.39.46.46,0,0,1,.4-.53h.06A.44.44,0,0,1,163.68,116.33Z"/><path class="cls-12" d="M165.37,116.33a.43.43,0,0,1-.45.41h0a.41.41,0,0,1-.47-.34.42.42,0,0,1,.34-.47.29.29,0,0,1,.13,0,.43.43,0,0,1,.46.4Z"/><path class="cls-12" d="M167.07,116.33a.46.46,0,0,1-.39.53.47.47,0,0,1-.54-.39.46.46,0,0,1,.4-.53h.06A.44.44,0,0,1,167.07,116.33Z"/><rect class="cls-4" x="523.85" y="70.88" width="52.09" height="30.35"/><path class="cls-4" d="M576.12,101.41H523.67V70.7h52.45Z"/><path class="cls-21" d="M527.92,99.71V72s.05,6.21.05,13.86S528,99.71,527.92,99.71Z"/><path class="cls-21" d="M526.85,73.15a4.12,4.12,0,0,1-.86,0,4.12,4.12,0,0,1-.86,0,7.42,7.42,0,0,1,1.72,0Z"/><path class="cls-21" d="M526.85,75a4.12,4.12,0,0,1-.86,0,4.12,4.12,0,0,1-.86,0,4.12,4.12,0,0,1,.86,0A4.12,4.12,0,0,1,526.85,75Z"/><path class="cls-21" d="M526.85,76.81a6.17,6.17,0,0,1-.86,0,4.12,4.12,0,0,1-.86,0,4.12,4.12,0,0,1,.86,0A4.12,4.12,0,0,1,526.85,76.81Z"/><path class="cls-21" d="M526.85,78.63a7.42,7.42,0,0,1-1.72,0,4.12,4.12,0,0,1,.86,0A4.12,4.12,0,0,1,526.85,78.63Z"/><path class="cls-21" d="M526.85,80.46a7.42,7.42,0,0,1-1.72,0,4.12,4.12,0,0,1,.86,0A4.12,4.12,0,0,1,526.85,80.46Z"/><path class="cls-21" d="M526.85,82.29a4.12,4.12,0,0,1-.86,0,4.12,4.12,0,0,1-.86,0,7.42,7.42,0,0,1,1.72,0Z"/><path class="cls-21" d="M526.85,84.11a4.12,4.12,0,0,1-.86,0,4.12,4.12,0,0,1-.86,0,4.12,4.12,0,0,1,.86,0A4.12,4.12,0,0,1,526.85,84.11Z"/><path class="cls-21" d="M526.85,85.94a4.12,4.12,0,0,1-.86,0,4.12,4.12,0,0,1-.86,0,4.12,4.12,0,0,1,.86,0A4.12,4.12,0,0,1,526.85,85.94Z"/><path class="cls-21" d="M526.85,87.77a4.12,4.12,0,0,1-.86,0,4.12,4.12,0,0,1-.86,0,4.12,4.12,0,0,1,.86,0A4.12,4.12,0,0,1,526.85,87.77Z"/><path class="cls-21" d="M526.85,89.59a4.12,4.12,0,0,1-.86,0,4.12,4.12,0,0,1-.86,0,4.12,4.12,0,0,1,.86,0A4.12,4.12,0,0,1,526.85,89.59Z"/><path class="cls-21" d="M526.85,91.42a4.12,4.12,0,0,1-.86,0,4.12,4.12,0,0,1-.86,0,4.12,4.12,0,0,1,.86,0A4.12,4.12,0,0,1,526.85,91.42Z"/><path class="cls-21" d="M526.85,93.25a4.12,4.12,0,0,1-.86,0,4.12,4.12,0,0,1-.86,0,4.12,4.12,0,0,1,.86,0A4.12,4.12,0,0,1,526.85,93.25Z"/><path class="cls-21" d="M526.85,95.07a7.42,7.42,0,0,1-1.72,0,4.12,4.12,0,0,1,.86,0A4.12,4.12,0,0,1,526.85,95.07Z"/><path class="cls-21" d="M526.85,96.9a4.12,4.12,0,0,1-.86,0,4.12,4.12,0,0,1-.86,0,7.42,7.42,0,0,1,1.72,0Z"/><path class="cls-21" d="M526.85,98.73a4.12,4.12,0,0,1-.86,0,4.12,4.12,0,0,1-.86,0,4.12,4.12,0,0,1,.86,0A4.12,4.12,0,0,1,526.85,98.73Z"/><path class="cls-21" d="M533.76,73h-4.47s1,0,2.24,0S533.76,73,533.76,73Z"/><path class="cls-21" d="M533.76,98.73h-2.23C532.77,98.73,533.76,98.7,533.76,98.73Z"/><path class="cls-21" d="M540,76.81h-4.19C538.12,76.81,540,76.78,540,76.81Z"/><path class="cls-21" d="M549.69,76.81H545.5C547.82,76.81,549.69,76.78,549.69,76.81Z"/><path class="cls-21" d="M546,78.63s-2.76.05-6.17.05-6.17,0-6.17-.05,2.76,0,6.17,0S546,78.6,546,78.63Z"/><path class="cls-21" d="M546,80.46s-2.76.05-6.17.05-6.17,0-6.17-.05,2.76,0,6.17,0S546,80.43,546,80.46Z"/><path class="cls-21" d="M554.48,85.94h-6.17C551.72,85.94,554.48,85.91,554.48,85.94Z"/><path class="cls-21" d="M550.81,82.29H538.47s2.76-.05,6.17-.05S550.81,82.26,550.81,82.29Z"/><path class="cls-21" d="M565.9,82.29H553.55s2.77-.05,6.18-.05S565.9,82.26,565.9,82.29Z"/><path class="cls-21" d="M560.65,78.63s-2.76.05-6.17.05-6.17,0-6.17-.05,2.76,0,6.17,0S560.65,78.6,560.65,78.63Z"/><path class="cls-21" d="M569.18,85.94H563C566.42,85.94,569.18,85.91,569.18,85.94Z"/><path class="cls-21" d="M567.48,80.46s-4.29.05-9.59.05-9.58,0-9.58-.05,4.29,0,9.58,0S567.48,80.43,567.48,80.46Z"/><path class="cls-21" d="M533.76,96.9h-4.47s1-.05,2.24-.05S533.76,96.87,533.76,96.9Z"/><path class="cls-21" d="M536,82.29h-4.47s1-.05,2.23-.05S536,82.26,536,82.29Z"/><path class="cls-21" d="M571.86,82.29h-4.47s1-.05,2.24-.05S571.86,82.26,571.86,82.29Z"/><path class="cls-21" d="M540,89.58h-4.19C538.12,89.58,540,89.55,540,89.58Z"/><path class="cls-21" d="M549.69,89.58H545.5C547.82,89.58,549.69,89.55,549.69,89.58Z"/><path class="cls-21" d="M546,91.41h-6.17C543.24,91.41,546,91.38,546,91.41Z"/><path class="cls-21" d="M546,93.23h-6.17C543.24,93.23,546,93.21,546,93.23Z"/><path class="cls-21" d="M550.81,95.06h-6.17C548.05,95.06,550.81,95,550.81,95.06Z"/><path class="cls-21" d="M565.9,95.06h-6.17C563.14,95.06,565.9,95,565.9,95.06Z"/><path class="cls-21" d="M560.65,91.41h-6.17C557.89,91.41,560.65,91.38,560.65,91.41Z"/><path class="cls-21" d="M567.48,93.23h-9.59C563.18,93.23,567.48,93.21,567.48,93.23Z"/><path class="cls-21" d="M536,95.06h-2.24C535,95.06,536,95,536,95.06Z"/><path class="cls-21" d="M571.86,95.06h-2.23C570.87,95.06,571.86,95,571.86,95.06Z"/><path class="cls-9" d="M588.64,143a2.32,2.32,0,0,1,.39-.44l1.11-1.12c1-.94,2.28-2.23,3.76-3.64h0v.2c-1.49-1.38-2.82-2.64-3.78-3.56l-1.12-1.1a2.27,2.27,0,0,1-.39-.43,2.28,2.28,0,0,1,.46.36l1.18,1c1,.88,2.34,2.12,3.83,3.5l.1.1-.1.09h0c-1.47,1.41-2.82,2.67-3.8,3.58l-1.17,1.06A3,3,0,0,1,588.64,143Z"/><path class="cls-9" d="M577.17,132.88a2.32,2.32,0,0,1-.39.44l-1.12,1.12c-.95.94-2.27,2.23-3.75,3.63h0v-.19c1.48,1.38,2.82,2.64,3.77,3.56l1.13,1.1a2.27,2.27,0,0,1,.39.43,2.28,2.28,0,0,1-.46-.36l-1.18-1c-1-.88-2.34-2.12-3.83-3.5l-.1-.1.1-.09h0c1.48-1.41,2.82-2.68,3.81-3.58l1.17-1.06A2.21,2.21,0,0,1,577.17,132.88Z"/><path class="cls-9" d="M580.11,145.39c-.07,0,1.14-3.41,2.69-7.56s2.87-7.5,2.93-7.47-1.13,3.41-2.69,7.56S580.18,145.42,580.11,145.39Z"/><path class="cls-9" d="M601.68,152.63v-8.36c0-5.31,0-12.9-.06-22.05l.11.11H564.41l.13-.13v30.41l-.12-.11,27,.06h0l-27,.06h-.11V122H601.9v.11c0,9.18,0,16.79-.06,22.12v7.75A1.73,1.73,0,0,1,601.68,152.63Z"/><path class="cls-9" d="M602,126.73c0,.07-8.42.13-18.81.13s-18.82-.06-18.82-.13,8.42-.13,18.82-.13S602,126.66,602,126.73Z"/><path class="cls-9" d="M567.4,124.51a.51.51,0,1,1-1,.2.67.67,0,0,1,0-.2.51.51,0,0,1,1,0Z"/><path class="cls-9" d="M569.23,124.51a.5.5,0,1,1-.5-.5A.5.5,0,0,1,569.23,124.51Z"/><path class="cls-9" d="M571.06,124.51a.5.5,0,1,1-.5-.5A.5.5,0,0,1,571.06,124.51Z"/><rect class="cls-9" x="468.04" y="37.47" width="33.12" height="23.61"/><path class="cls-12" d="M501.43,41c0,.08-7.48.14-16.7.14S468,41.06,468,41s7.47-.15,16.7-.15S501.43,40.9,501.43,41Z"/><path class="cls-12" d="M470.75,39.25a.46.46,0,0,1-.39.51.45.45,0,0,1-.12-.9h.06A.43.43,0,0,1,470.75,39.25Z"/><path class="cls-12" d="M472.37,39.25a.46.46,0,0,1-.39.51.45.45,0,0,1-.12-.9h.07A.42.42,0,0,1,472.37,39.25Z"/><path class="cls-12" d="M474,39.25a.46.46,0,0,1-.39.51.45.45,0,0,1-.12-.9h.06A.43.43,0,0,1,474,39.25Z"/><path class="cls-1" d="M476.3,52.94v-6h2.81a1.93,1.93,0,1,1,0,3.86h-1.53v2.14Zm3.52-4.07a.81.81,0,0,0-.89-.81h-1.35v1.61h1.35A.8.8,0,0,0,479.82,48.87Z"/><path class="cls-1" d="M486,52.94V50.41h-2.83v2.53h-1.28v-6h1.28v2.35H486V46.94h1.29v6Z"/><path class="cls-1" d="M488.51,52.94v-6h2.81a1.93,1.93,0,1,1,0,3.86h-1.53v2.14ZM492,48.87a.82.82,0,0,0-.89-.81h-1.35v1.61h1.35A.81.81,0,0,0,492,48.87Z"/><rect class="cls-9" x="280.59" y="64.41" width="29.8" height="21.25"/><path class="cls-12" d="M310.63,67.56s-6.73.09-15,.09-15,0-15-.09,6.73-.1,15-.1S310.63,67.51,310.63,67.56Z"/><path class="cls-12" d="M283,66a.41.41,0,1,1-.46-.36h0A.38.38,0,0,1,283,66Z"/><path class="cls-12" d="M284.49,66a.4.4,0,0,1-.36.44.41.41,0,0,1-.44-.36.4.4,0,0,1,.36-.44h0a.38.38,0,0,1,.4.36Z"/><path class="cls-12" d="M286,66a.4.4,0,0,1-.36.44.41.41,0,0,1-.44-.36.4.4,0,0,1,.36-.44h0a.38.38,0,0,1,.4.36Z"/><path class="cls-1" d="M288.8,79.32V76.79H286v2.53h-1.28v-6H286v2.36h2.84V73.31h1.29v6Z"/><path class="cls-1" d="M292.65,79.32V74.44h-1.76V73.31h4.79v1.13h-1.74v4.88Z"/><path class="cls-1" d="M301.72,79.32V75L300,79.32h-.56L297.78,75v4.33H296.5v-6h1.79l1.46,3.76,1.46-3.76H303v6Z"/><path class="cls-1" d="M304.14,79.32v-6h1.29v4.88H308v1.13Z"/><path class="cls-9" d="M253.76,159.15v-2.53h-2.84v2.53h-1.28v-6h1.28v2.35h2.84v-2.35h1.29v6Z"/><path class="cls-9" d="M257.61,159.15v-4.88h-1.76v-1.12h4.79v1.12H258.9v4.88Z"/><path class="cls-9" d="M266.68,159.15v-4.33L265,159.15h-.56l-1.69-4.33v4.33h-1.28v-6h1.79l1.46,3.75,1.46-3.75H268v6Z"/><path class="cls-9" d="M269.1,159.15v-6h1.29V158h2.54v1.13Z"/><path class="cls-9" d="M232,95.43v-7c0-4.47,0-10.89-.07-18.73l.13.12H192.19l.16-.16V95.39l-.15-.15,28.68.07h.06l-28.77.07H192v-26h40.15v.12c0,7.87-.05,14.32-.06,18.81v6.49A3,3,0,0,1,232,95.43Z"/><path class="cls-9" d="M232,73.5c0,.09-8.93.16-19.94.16s-19.95-.07-19.95-.16,8.93-.16,19.95-.16S232,73.41,232,73.5Z"/><path class="cls-9" d="M195.08,71.62a.46.46,0,0,1-.49.43h0a.45.45,0,0,1-.48-.42h0a.46.46,0,0,1,.48-.43A.47.47,0,0,1,195.08,71.62Z"/><path class="cls-9" d="M196.85,71.62a.5.5,0,0,1-.43.55.49.49,0,0,1-.12-1h.06A.47.47,0,0,1,196.85,71.62Z"/><path class="cls-9" d="M198.62,71.62a.45.45,0,0,1-.47.43h0a.46.46,0,0,1-.49-.43h0a.47.47,0,0,1,.49-.43A.46.46,0,0,1,198.62,71.62Z"/><path class="cls-9" d="M199.64,83.52a4.54,4.54,0,0,1,4.78-4.63,4.07,4.07,0,0,1,3.74,2.19l-1.64.8a2.44,2.44,0,0,0-2.1-1.3,2.95,2.95,0,0,0,0,5.89,2.42,2.42,0,0,0,2.1-1.31l1.64.8a4.11,4.11,0,0,1-3.74,2.2A4.56,4.56,0,0,1,199.64,83.52Z"/><path class="cls-9" d="M208.68,86.74l1-1.5a3.93,3.93,0,0,0,2.85,1.23c1.06,0,1.56-.47,1.56-1,0-1.56-5.16-.47-5.16-3.84,0-1.49,1.29-2.73,3.4-2.73a5,5,0,0,1,3.49,1.25l-1.06,1.42a3.84,3.84,0,0,0-2.61-1c-.8,0-1.26.35-1.26.89,0,1.41,5.15.46,5.15,3.8,0,1.64-1.18,2.88-3.59,2.88A5.22,5.22,0,0,1,208.68,86.74Z"/><path class="cls-9" d="M216.75,86.74l1-1.5a4,4,0,0,0,2.85,1.23c1.07,0,1.56-.47,1.56-1,0-1.56-5.16-.47-5.16-3.84,0-1.49,1.29-2.73,3.4-2.73a5,5,0,0,1,3.5,1.25l-1.06,1.42a3.88,3.88,0,0,0-2.61-1c-.81,0-1.27.35-1.27.89,0,1.41,5.15.46,5.15,3.8,0,1.64-1.18,2.88-3.59,2.88A5.18,5.18,0,0,1,216.75,86.74Z"/></svg>