<?xml version="1.0" standalone="no"?>
<!DOCTYPE svg PUBLIC "-//W3C//DTD SVG 20010904//EN"
 "http://www.w3.org/TR/2001/REC-SVG-20010904/DTD/svg10.dtd">
<svg version="1.0" xmlns="http://www.w3.org/2000/svg"
 width="512.000000pt" height="512.000000pt" viewBox="0 0 512.000000 512.000000"
 preserveAspectRatio="xMidYMid meet">
<metadata>
Created by potrace 1.16, written by Peter Selinger 2001-2019
</metadata>
<g transform="translate(0.000000,512.000000) scale(0.100000,-0.100000)"
fill="#000000" stroke="none">
<path d="M381 4930 c-70 -25 -123 -61 -183 -122 -52 -53 -122 -184 -133 -247
-6 -37 -10 -41 -36 -41 l-29 0 0 -1475 0 -1475 29 0 c26 0 30 -4 36 -41 18
-107 125 -261 224 -324 98 -61 124 -65 462 -65 l308 0 28 24 28 25 -28 28 -27
28 -353 5 c-345 5 -353 5 -389 28 -51 31 -96 86 -127 152 l-26 55 -3 1013 -2
1012 2220 0 2220 0 0 -555 0 -555 -45 0 c-54 0 -98 -17 -141 -53 -46 -39 -114
-37 -224 8 l-85 34 -6 49 c-9 67 -34 116 -81 156 -53 45 -108 59 -216 54 -74
-3 -96 -9 -135 -31 -62 -37 -107 -112 -107 -180 0 -42 -3 -49 -27 -59 -16 -6
-57 -24 -92 -39 -86 -39 -140 -39 -189 1 -20 16 -54 36 -74 45 -34 14 -42 14
-75 0 -47 -19 -217 -186 -245 -239 -26 -50 -18 -91 27 -151 48 -62 48 -120 0
-230 l-34 -80 -49 -6 c-66 -9 -115 -33 -156 -79 -46 -51 -56 -92 -56 -232 l0
-118 -302 0 c-284 0 -305 -1 -335 -20 -19 -11 -33 -28 -33 -39 0 -45 8 -46
482 -51 l449 -5 34 -85 c48 -115 48 -173 1 -235 -71 -92 -58 -131 96 -282 134
-131 171 -140 268 -63 31 25 47 30 89 30 29 0 66 -7 83 -16 18 -9 55 -24 82
-34 l51 -17 6 -56 c8 -71 47 -139 101 -175 38 -25 51 -27 151 -30 129 -4 179
10 228 65 41 47 59 92 59 145 l0 43 88 38 c107 45 186 51 218 16 25 -28 87
-59 117 -59 13 0 43 13 68 28 57 37 201 188 218 229 19 45 7 92 -34 140 -48
56 -48 106 2 230 l37 93 46 0 c25 0 63 9 85 19 46 20 102 79 111 116 5 19 13
25 35 25 l29 0 0 110 0 110 -30 0 c-17 0 -30 5 -30 12 0 25 -55 90 -96 114
-25 15 -66 28 -97 31 l-53 5 -37 88 c-38 89 -50 181 -26 196 24 14 69 99 69
129 0 34 -41 104 -84 144 l-26 24 0 1101 c0 932 -3 1112 -15 1171 -35 166
-137 305 -273 372 l-76 38 -1955 2 c-1921 2 -1957 2 -2010 -17z m4056 -120
c60 -34 91 -71 130 -155 l28 -60 3 -487 3 -488 -2221 0 -2221 0 3 493 3 492
29 62 c31 67 94 135 149 158 27 12 348 14 2037 15 l2005 0 52 -30z m-447
-2360 c7 -124 7 -124 155 -170 39 -13 100 -38 137 -57 l67 -35 28 20 c15 11
41 34 57 51 26 27 36 31 85 31 56 0 56 0 128 -72 71 -71 73 -74 73 -122 0 -46
-4 -53 -55 -107 l-56 -58 40 -79 c21 -43 49 -112 61 -152 33 -109 50 -124 158
-130 l87 -5 3 -157 3 -158 -78 0 c-120 0 -137 -15 -179 -154 -10 -32 -35 -92
-56 -134 l-39 -76 56 -56 c53 -53 55 -58 55 -109 0 -52 -1 -54 -67 -122 l-66
-69 -66 0 c-65 0 -65 0 -117 51 l-52 52 -54 -31 c-29 -17 -100 -46 -157 -66
-139 -47 -145 -54 -150 -167 l-3 -89 -157 2 -156 3 -5 87 c-6 106 -21 127
-113 152 -34 9 -104 37 -156 62 l-94 46 -56 -56 c-53 -53 -59 -56 -106 -56
-48 0 -52 2 -122 72 l-73 72 0 60 c0 59 1 61 52 113 l52 53 -36 67 c-20 38
-48 107 -63 155 -37 118 -52 131 -163 138 l-87 5 0 155 0 155 86 3 c110 4 128
18 159 123 12 41 39 109 61 152 44 88 43 90 -20 152 -39 37 -41 42 -41 99 l0
60 67 68 c67 67 68 68 122 68 51 0 57 -3 107 -50 29 -27 57 -50 62 -50 5 0 45
18 88 39 44 22 111 49 150 60 100 29 118 51 122 149 2 42 5 83 7 90 4 10 40
12 157 10 l153 -3 5 -85z"/>
<path d="M858 4497 c-121 -51 -208 -166 -208 -276 0 -124 155 -274 285 -276
133 -1 285 151 285 284 -1 92 -71 198 -167 249 -83 44 -125 48 -195 19z m193
-110 c48 -32 69 -79 69 -155 0 -72 -16 -116 -55 -152 -25 -23 -34 -25 -130
-25 -101 0 -104 1 -135 30 -38 37 -54 92 -47 172 9 114 56 153 183 153 68 0
87 -4 115 -23z"/>
<path d="M1750 4503 c-122 -42 -222 -164 -223 -272 -1 -139 179 -307 306 -287
125 20 251 149 264 271 12 99 -93 240 -210 283 -68 26 -78 26 -137 5z m177
-113 c49 -30 63 -66 63 -168 0 -75 -3 -93 -21 -116 -34 -43 -70 -56 -160 -56
-135 0 -179 44 -179 180 0 76 12 111 52 146 32 30 42 32 133 33 63 1 87 -3
112 -19z"/>
<path d="M2943 4506 c-131 -42 -246 -192 -229 -299 15 -89 93 -190 186 -238
l45 -24 500 0 500 0 48 24 c107 53 182 161 182 261 0 100 -76 207 -185 259
l-55 26 -475 2 c-370 2 -484 -1 -517 -11z m1057 -111 c58 -30 70 -58 70 -165
0 -107 -12 -135 -70 -165 -44 -23 -1067 -22 -1111 0 -52 27 -69 69 -69 165 0
98 19 142 73 165 49 22 1065 22 1107 0z"/>
<path d="M3750 1965 c-235 -51 -428 -248 -476 -486 -14 -67 -14 -83 0 -150 28
-133 105 -260 213 -350 68 -57 194 -116 280 -131 210 -36 465 114 573 338 32
67 60 169 60 224 0 20 -7 63 -15 95 -52 204 -213 379 -405 439 -103 32 -154
37 -230 21z m201 -105 c129 -24 237 -107 296 -228 l38 -76 0 -145 c0 -190 -16
-233 -119 -337 -103 -103 -147 -119 -336 -119 -142 0 -146 1 -212 32 -163 77
-248 220 -248 415 0 42 5 101 11 130 34 162 153 284 314 324 62 15 185 17 256
4z"/>
<path d="M1593 2817 c-11 -15 -55 -178 -117 -441 l-99 -417 22 -22 c25 -25 48
-17 68 24 6 13 55 207 109 432 94 394 96 408 79 427 -24 26 -39 25 -62 -3z"/>
<path d="M899 2703 c-107 -115 -253 -283 -266 -308 -11 -20 -9 -27 10 -51 41
-53 299 -339 311 -346 8 -4 22 2 35 16 l23 24 -126 140 -126 141 0 59 0 59
118 133 c64 73 120 138 124 145 4 7 -2 21 -16 34 l-23 22 -64 -68z"/>
<path d="M2061 2746 l-24 -25 65 -73 c204 -229 188 -206 188 -270 l0 -57 -126
-141 c-130 -147 -132 -151 -89 -182 15 -11 25 -1 166 157 164 183 179 203 179
226 0 18 -139 183 -275 327 l-60 64 -24 -26z"/>
</g>
</svg>
